<?xml version="1.0" encoding="utf-8"?>
<!-- Generator: Adobe Illustrator 21.0.0, SVG Export Plug-In . SVG Version: 6.00 Build 0)  -->
<svg version="1.1" id="Layer_1" xmlns="http://www.w3.org/2000/svg" xmlns:xlink="http://www.w3.org/1999/xlink" x="0px" y="0px"
	 viewBox="0 0 26 25" style="enable-background:new 0 0 26 25;" xml:space="preserve">
<style type="text/css">
	.st0{fill:none;stroke:#AED8E7;stroke-width:0.5;stroke-miterlimit:10;}
</style>
<g>
	<path class="st0" d="M10.4,23.1C10.4,23.1,10.4,23.1,10.4,23.1c-0.1,0-0.1-0.1-0.1-0.1c0.1-0.6,0.1-1.5-0.3-1.8
		c-0.3-0.3-1.3-0.4-1.7-0.3c0,0-0.1,0-0.1,0c0,0,0-0.1,0-0.1c0.6-1.5,2.1-2,3.2-2.2c0.5-0.1,1.8-0.3,2.7-0.6
		c0.3-0.6,0.5-1.2,0.6-1.7c0.1-0.9,0.1-1.7,0.1-2.6c-0.3,0-0.6,0-0.9-0.1c-1.6-0.5-3-0.8-4.4-0.9c-1.1-0.1-2.2,0-3.3,0L0.7,13
		c0.7,1.7,2.3,3.1,4.1,3.3c0.7,0.1,1.4,0.1,2.1,0l5.8-0.3c0.1,0,0.1,0,0.1,0.1c0,0.1,0,0.1-0.1,0.1l-5.8,0.3c-0.7,0-1.4,0.1-2.1,0
		c-1.9-0.3-3.7-1.7-4.3-3.6c0,0,0-0.1,0-0.1c0,0,0,0,0.1,0l5.7-0.3c1.1-0.1,2.2-0.1,3.3,0c1.4,0.1,2.8,0.4,4.4,0.9
		c0.3,0.1,0.6,0.1,0.8,0.1C14.6,9.4,13,5.3,10.3,2.2c0,0,0-0.1,0-0.1c0,0,0.1-0.1,0.1,0c1.6,0.5,3.1,1.5,4.1,2.8
		c1,1.4,1.5,3.1,1.5,4.8c0,0.1,0,0.1-0.1,0.1c0,0,0,0,0,0c-0.1,0-0.1-0.1-0.1-0.1c0.1-1.7-0.4-3.3-1.4-4.6c-0.9-1.2-2.2-2.2-3.7-2.7
		c2.6,3.1,4.1,7.1,4.3,11.2c0.2,0,0.4-0.1,0.6-0.2c0.4-0.2,0.6-0.7,0.7-1.3c0.1-0.6,0.5-1.8,1.1-2.3c0.9-0.6,1.5-0.4,2-0.2
		c0.2,0.1,0.8,0.4,1.1,0.4c0.3,0.1,0.9,0.1,1.2,0c0.9-0.1,1.9-0.1,2.9,0c0.1,0,0.1,0.1,0.1,0.1c0,0.1,0,0.1-0.1,0.1
		c-0.3,0-0.5,0.1-0.8,0.1c-1.1,0.1-2.4,0.2-3.3,0.5c-0.6,0.2-0.9,1.4-1.2,2.5c-0.2,0.8-0.4,1.7-0.8,2.3c-1.1,1.6-2.5,2-3.4,2.3
		c-0.2,0.1-0.4,0.1-0.6,0.2c-0.1,0-0.2,0.1-0.4,0.1C13.2,20,11.3,22.2,10.4,23.1C10.5,23.1,10.4,23.1,10.4,23.1z M8.7,20.7
		c0.5,0,1.2,0.1,1.4,0.4c0.3,0.3,0.4,1.1,0.3,1.6c0.9-0.9,2.5-2.8,3.4-4.5c-0.8,0.2-1.8,0.4-2.5,0.5c-1,0.2-2.4,0.6-3,1.9
		C8.6,20.7,8.6,20.7,8.7,20.7z M15,13.7c0,0.9,0,1.8-0.1,2.6c-0.1,0.5-0.2,1-0.5,1.6c0.1,0,0.1,0,0.1-0.1c0.2-0.1,0.4-0.1,0.6-0.2
		c0.9-0.3,2.2-0.7,3.3-2.2c0.4-0.5,0.6-1.4,0.8-2.2c0.3-1.2,0.6-2.3,1.4-2.6c0.7-0.2,1.6-0.4,2.5-0.5c-0.4,0-0.8,0-1.2,0.1
		c-0.4,0-0.9,0-1.3,0c-0.3-0.1-0.8-0.3-1.2-0.4c-0.5-0.2-1-0.4-1.8,0.2c-0.6,0.4-1,1.5-1,2.1c-0.1,0.6-0.4,1.1-0.8,1.4
		C15.5,13.6,15.3,13.7,15,13.7z"/>
</g>
</svg>
