<?xml version="1.0" encoding="utf-8"?>
<!-- Generator: Adobe Illustrator 21.0.0, SVG Export Plug-In . SVG Version: 6.00 Build 0)  -->
<svg version="1.1" id="Layer_1" xmlns="http://www.w3.org/2000/svg" xmlns:xlink="http://www.w3.org/1999/xlink" x="0px" y="0px"
	 viewBox="0 0 130 54" style="enable-background:new 0 0 130 54;" xml:space="preserve">
<style type="text/css">
	.st0{fill:#AED8E7;}
</style>
<g>
	<path class="st0" d="M1.1,46.1c1.3-0.1,48.4-0.2,49.9-0.3c1.8-0.1,3.6-0.2,5.3-0.4c-0.1-0.1-0.3-0.2-0.4-0.3c-3.1-2.4-5.2-4-4.9-8
		c0.1-2.4,1.6-4.9,3.6-6c1.3-0.8,2.8-0.9,4.2-0.4c-0.1-0.6-0.2-1.2-0.3-1.8c-0.5-3.1-1-6,0.2-9.6c1.3-3.9,3.9-8.9,8.8-10.9
		c3.3-1.4,7.3-1.7,10.9-0.8c3.8,1,6.7,3.1,8.3,6c4.6-4.9,11.7-2.7,13-2.1c5.5,2,8.4,5.6,8.2,10.1c4.4-1.5,9.1,0.5,11.6,3.4
		c2.4,2.8,2.8,6.4,1.1,9.6h7.7c0.2,0,0.4,0.2,0.4,0.4c0,0.2-0.2,0.4-0.4,0.4h-8.2c-2.4,3.8-5.9,3.8-9.7,3.8c-0.7,0-1.4,0-2.1,0
		c-4.2,0.2-35.6,0-35.9,0c-0.1,0-0.2-0.1-0.3-0.1c-1.8-2.3-2.6-4.7-2.2-6.8c0.3-2.1,1.6-3.9,3.7-5.5c4.1-2.9,10.2-0.6,13.6,1.9
		c-0.5-2.3-0.1-4.4,1.4-5.8c1.9-1.9,5.1-2.5,8.5-1.4c4.2,1.3,7.2,3.7,8.2,6.6c0.7,2.1,0.4,4.3-1,6.6h15.4c1.8-3.1,1.5-6.4-0.9-9.1
		c-2.4-2.8-7.1-4.7-11.3-3c-0.1,0-0.2,0-0.3,0c-0.1-0.1-0.2-0.2-0.1-0.3c0.5-4.4-2.3-8-7.7-10C98,11.6,91,9.3,86.7,14.4
		c-0.1,0.1-0.2,0.1-0.3,0.1c-0.1,0-0.2-0.1-0.3-0.2c-3.1-6.5-12.3-8-18.6-5.4c-4.6,1.9-7.1,6.8-8.4,10.5c-1.2,3.5-0.7,6.2-0.2,9.3
		c0.1,0.8,0.3,1.6,0.4,2.4c0,0.1,0,0.3-0.1,0.3c-0.1,0.1-0.2,0.1-0.4,0c-1.7-0.8-3.2-0.4-4.1,0.2c-1.8,1-3.1,3.3-3.2,5.5
		c-0.2,3.7,1.5,5,4.7,7.4c0.4,0.3,0.7,0.6,1.1,0.9c0.1,0.1,0.2,0.2,0.1,0.4c0,0.1-0.1,0.2-0.3,0.3c-2,0.3-4.1,0.4-6.2,0.5
		c-1.5,0.1-48.5,0.1-49.9,0.3 M72.6,38.3c2.5,0,31.7,0.1,35.7,0c0.7,0,1.4,0,2.1,0c3.5,0,6.6,0,8.8-3.1h-15.6
		c-0.1,0-0.2-0.1-0.3-0.2c-0.1-0.1-0.1-0.3,0-0.4c1.6-2.3,2-4.5,1.3-6.6c-0.9-2.6-3.8-4.9-7.8-6.2c-3.1-1-6.1-0.5-7.7,1.2
		c-1.4,1.5-1.8,3.7-0.9,6.2c0.1,0.1,0,0.3-0.1,0.4c-0.1,0.1-0.3,0.1-0.4,0c-3.1-2.6-9.5-5.5-13.6-2.6c-2,1.4-3.2,3.1-3.5,5
		C70.3,34.1,71,36.2,72.6,38.3z"/>
</g>
</svg>
