<svg xmlns="http://www.w3.org/2000/svg" viewBox="0 0 346 150"><path fill="#aed8e7" d="M338.5 149.1c-2 0-4.5-.6-6.6-1.2-5-1.4-8.9-4.3-12.6-7.1-4.2-3.2-8.2-6.2-13.6-7.2-4.5-.8-8.7-1.6-13.3.4-1.4.6-2.8 1.5-4.2 2.2-1.9 1.1-3.9 2.3-6.2 3-3.8 1.2-7.4.2-11-.8-1.8-.5-3.6-1-5.5-1.2.3.6.6 1.2.8 1.8.1.2 0 .4-.1.6-.7.9-1.9 1.3-3.4 1.4 1.5 1.7 3 3.4 2.3 4.8-.1.2-.2.3-.4.3-2.9.8-6.5-.4-9.4-1.4-.4-.1-.8-.3-1.2-.4-2.4-.8-4-2.1-4.6-3.8-.4-1.1-.3-2.4.2-3.8-1.7-1.5-1.5-2.8-1.2-3.5.2-.4.5-.7 1-1l-.3-.3c-.6-.6-1.3-1.2-1.6-2.2-.5-1.6 0-4.3.7-6.9.1-.2.1-.4.1-.6.4-1.7 1-3.3 1.6-4.9 1-2.7 2-5.2 2-8.1 0-2.1-.6-3.9-1.2-5.9-.8-2.6-1.6-5.3-1.1-8.3.2-1.3.5-2.5.8-3.6.8-3.4 1.5-6.4.5-10.4-1.6-6.4-3-13.4-3.2-20.6-.8-.2-1.5-.5-2.3-.8-.2-.1-.3-.3-.3-.6.2-1.8.5-3.5.8-5.1.5-2.7 1.1-5.2.6-8-.1-.9-.1-2.2-.1-3.6.1-2.5.1-5.7-.9-6.7-.2-.2-.5-.3-.9-.3-.7.1-3 1.3-4.5 2.1-1 .5-1.8 1-2.3 1.2-1.1.5-2.1 1-3.1 1.6.3 1.7-.2 3-1.9 5.2-.8 1-1.7 1.9-2.7 2.7-1 .9-2 1.8-2.8 2.9-.7 1-1.4 2.9-2.2 5-1.8 4.7-4 10.4-7.3 11-2.1 2.3-5 4.1-7.2 3.8-2.4-.4-3.5-2-4.5-3.5-.1-.2-.2-.4-.4-.5-1.1 1.3-2.4 2-3.8 2-.2 0-.3-.1-.4-.2-.1-.1-.2-.3-.2-.4 0-1-.5-2-1.2-2.9-.9.6-1.7 1.4-2.5 2.2-.2.2-.4.4-.5.6-.2 2.4.1 5.1.3 6.8.1.7.1 1.4.1 1.8 0 .7.1 1.5.2 2.2.4 4.6.8 9.8-5.3 10.7 1.7.3 2.8.7 3.2 1.3.9 1.3.4 4.1 0 6.7-.2 1.3-.4 2.5-.4 3.2 0 .9.1 1.7.2 2.5.2 2 .4 4.1-.2 6.5-.5 2.2-2.8 5.1-5.6 5.8-.1 0-.3.1-.4.1 0 .1-.1.2-.1.2-.5 1.2-.5 3.2-.6 5.2-.1 3.2-.2 6.5-2 7.9-.9.6-2.1.8-3.6.3-1.3-.4-2.1-.9-2.5-1.7-.6-1.2 0-2.6.7-4.4.1-.2.2-.5.3-.8l.2-.5c1.2-3 1.6-4.2 1-7.3-.1-.5-.3-1.3-.6-2.3-1.2-4.1-2.9-10.2-.7-12.9.8-.9 1.9-1.3 3.3-1.2.2 0 .4.2.5.4.6 1.8.3 4.2 0 6.8-.4 3.1-.8 6.3.6 7.8.8.8 1.6 1.2 2.6 1.2.4-1 .7-1.9 1.1-2.7 1.7-4.1 3.1-7.6 3-12.6 0-2.6-.6-5.2-1.2-7.7-.1-.4-.2-.7-.2-1.1-.7-.1-1.5-.2-2-.3-1-.1-1.9-.2-2.6-.4-4.5-.9-7.4-.8-8.6.3-1.1 1-1.6 3.8-2 6.1-.2 1-.4 2-.6 2.8-.1.3-.2.7-.3 1 .4 0 .9 0 1.4.1 1.4.2 2.5.8 3.2 1.8.7 1.1.9 2.5.7 4 .2.6.2 1.3 0 2.2 0 .2-.1.3-.3.4 0 0-.1 0-.1.1-.2.8-.4 1.7-.6 2.4-.1.4-.2.8-.3 1.1-.7 2.5-.1 4.4.4 6.3.5 1.8 1 3.6.6 5.9-.5 2.7-1.9 4.8-3.9 5.7-2 .9-4.3.6-6.6-.8-.2-.2-.3-.5-.2-.7.3-.8.5-1.5.8-2.3.7-2.2 1.4-4.4 3.2-5.5v-.1c-.7-3.9-1.4-7.8-1.4-12 0-1.2.1-2.2.3-3.2-.8-.1-1.4-.4-1.8-1-1.3-1.8.1-4.9 1.3-7.6.6-1.4 1.2-2.8 1.3-3.6.1-1.2.1-2.3.1-3.4.1-2.5.1-4.9 1.1-7.8 0-.1.1-.2.1-.3-1-2.1-1.4-5.2 1.6-8.9-.7.1-1.2-.1-1.6-.4-1-.9-.5-2.9-.1-4.5.1-.6.3-1.2.3-1.4 0-.2-.1-.4-.2-.5-.6 1.8-1.4 2.8-2.3 3-.7.1-1.4-.2-2-1-1.1-1.5-1.5-4.5-.2-6.9.2-.3.3-.6.5-.8-.3-.5-.5-1-.7-1.6-.3-.9-1-2.5-1.4-2.5-.1 0-.4.1-.8.7-.5.7-.5 2.3-.6 3.9 0 1.5-.1 3.1-.5 4.3-.8 2-1.9 3.6-3.2 5.3-.5.6-.9 1.2-1.4 1.9-.4.6-.8 1.2-1.1 1.9 1.5-.2 2.9-.4 4.4-.5.3 0 .6.2.6.5.3 1.4 0 2.5-.8 3.3-.7.7-1.6 1.1-2.8 1.3 0 .1.1.2.1.2 1.6 4.4 1.3 7.3-.8 8.6-.2.1-.5.1-.7 0-2.8-2.1-3.4-5.4-2.9-8.6-2.5-.1-5.2-.6-7-.9-.5-.1-1-.2-1.3-.2-.8-.1-1.5-.3-2.2-.5-.8-.2-1.5-.4-2.1-.4.7 2.3 1.9 4.6 3.1 6.9.3.7.7 1.3 1 2 .5 1 .9 2.1 1.1 3.2 0 0 .1 0 .1-.1 1.5-.5 3-1.1 4.8-1.2 2.9-.3 4.6.1 5.4 1.2 1.1 1.4.3 3.5-.5 5.9-.5 1.3-1 2.7-1.2 4-.5 3.2-.5 6.3-.5 9.5 0 2.5 0 5.1-.2 7.7-.2 2.2-1.1 4.2-1.9 6.2-.2.4-.3.8-.5 1.2l-.3.6c-.3.8-.7 1.7-.8 2.3 0 .3.2 1 .3 1.7.4 1.3.6 2.1.3 2.7-.6 1.3-2.5 2-4.1 2.1-1.6.1-2.9-.4-3.5-1.4-.9-1.4.3-3.7 1.2-5.8.4-.8.7-1.5.8-1.9.3-1.4.2-2.9.1-4.4-.1-1.4-.2-2.7 0-4 .2-.8.4-1.4.7-1.9-.6-1.7-.5-4-.4-5.8 0-.4 0-.7.1-1 .1-2.4.5-4.6.9-6.9.5-2.7.9-5.2.9-7.9-.6-.2-1.1-.2-1.6-.3.2 2.3 0 4.7-.2 7-.1 1.7-.3 3.4-.3 5v.1c0 2.4 0 6.9-1.7 8.4-.7.6-1.8.8-2.8 1-.5.1-1 .2-1.4.3.1.7.1 1.3.2 2 .6.9 1.4 1.2 2.1 1.5 1.6.7 2.7 1.4 2.5 4.7-.1 1.9-1.4 6.5-3 8-1.4 1.3-2.5 1.3-3.2 1.1-1.7-.6-2.5-2.9-2.7-4.9-.2-2.2.6-3.6 1.5-5 .5-.9 1.1-1.7 1.3-2.8.2-.8.2-1.5.2-2.3-.7-1-.9-1.8-.6-2.5.1-.2.2-.4.4-.5-.1-1.1-.2-2.3-.1-3.5.1-.6.1-1.1.2-1.7.3-2.3.5-4.4.2-7-.4-3.7.7-7 2.9-8.8l.9-.6c-2.1.3-3.3.2-4.1-.4-.9-.7-1-1.9-1.1-3.4 0-.3-.1-.6-.1-1-.1-.6-.2-1.3-.3-2-.5-2.3-1-4.8.5-6.9.6-.8 1.2-1.3 1.8-1.6-.1-.4-.2-.9-.3-1.3-1.3-.6-2.5-1.4-3.7-2.5-.2-.2-.2-.4-.2-.6.2-.7.3-1.4.5-2.1.8-3.2 1.7-6.9 3.2-9.6.3-.4.7-1 1.3-1.6.9-1 2.3-2.5 2-3.2-.5-.4-4-1-5.1-1-2.2-.1-4.2.3-6.4.7-2 .4-4 .7-6.1.7h-.7c-1.9 0-4.6 0-5.9-1.9-.6-.9-.6-1.9-.6-2.8 0-.9.1-1.7-.5-2.4-.4.1-.7.2-1.1.2-.3.1-.6.1-.9.2.2.1.4.3.6.5.9.9 1.1 2.3.8 4.2-.3 1.9-1.4 3.2-3.2 3.7-2.7.8-6.3-.5-8.3-2.2-1.2 1.8-2.7 4-5.1 4.3-.2 0-.3 0-.5-.1-.1-.1-.2-.3-.2-.4-.1-1.1.4-2.6 1.2-4-1.9.1-3.7-1-5.6-2.2-.9-.6-1.8-1.1-2.7-1.6-1.2-.6-2.7-1.1-4-.8-1.7 4.2 0 8.7 5.1 13.7l.9.9c1.2 1.1 2 1.9 2 2.9-.1.8-.7 1.6-2.1 2.5-.8.6-1.9 1-3 1.4 2.5 7.9 2.9 16.7.9 24.6-.2.7-.3 1.6-.5 2.5-.4 2.8-.9 5.9-2.7 7.2 0 3.3-1.1 7.1-3.2 11.1-.3.5-.5 1-.8 1.5-1 1.9-2.1 3.8-2.3 5.8-.1 1.3.3 2.7.6 4 .4 1.6.8 3.2.5 4.8-.6 3.1-2.5 3.1-3.3 3-3-.5-6.9-5.7-6.2-9.6.8-5.4 1.7-10.9 4.7-15.9.9-1.5 1.5-2.8 1.8-3.9-1.3-.2-2.4-.6-3.2-1.1-.3-.2-.4-.5-.2-.8.9-1.6 2.4-1.7 3.5-1.8-.3-1.5-.9-3-1.7-5l-.6-1.5c-.1-.3-.2-.5-.3-.8-.4-.5-.7-1-.9-1.5-.2-.4-.5-.9-.8-1.4-.1-.1-.1-.2-.2-.3-.9-.4-1.9-.7-2.9-1-5.3-1.9-10.7-3.8-13.8-9.1-1.8-3.1-2.6-6.5-2.4-10.7 0-.7.1-1.5.2-2.3-.4-.2-.7-.4-1-.6-.1 1.2-.2 2.4-.4 3.5-.5 3.8-.9 7.4.7 11.2 1 2.4 2.5 4.7 4 7s3.1 4.7 4.1 7.2c.2.5.3.9.3 1.4.4.1.9.2 1.3.3.9.2 1.7.4 2.5.5 1.1.1 2.2 0 3.3-.2.9-.1 1.8-.3 2.7-.3 2.1 0 3.3.5 3.7 1.4.3.8.1 2.4-4.5 5.9-.4.3-.9.6-1.3 1-2.4 1.7-4.8 3.5-5.3 6.4-.3 2.1.4 4.1 1 6 .6 1.8 1.3 3.7 1.1 5.7-.6 5.1-8.1 6-14.3 6-3.6 0-7.1-1.1-10.5-2.1-2.4-.7-4.9-1.4-7.3-1.8-7.6-1.1-15.3-1.4-21.2-.8-3.8.4-12.8 3.2-20 7.6-.3.2-.7.1-.8-.2-.2-.3-.1-.7.2-.8 7.7-4.7 16.8-7.4 20.5-7.8 6-.6 13.8-.3 21.5.8 2.5.4 5 1.1 7.5 1.8 3.3 1 6.8 2 10.2 2 3.1 0 7.5-.2 10.4-1.6-.4.1-.7.1-1 .1-2.2-.2-4.4-2.9-5.3-4.6-1.2-2.6-.9-5.2-.1-7.7-.3-1.3-.4-2.6-.4-4 0-2.7 1.3-5.1 2.7-7.4.3-.6.7-1.2 1-1.8-.6-1.5-1.2-3-.4-4.5.1-.2.3-.3.5-.3.3 0 .7 0 1 .1 0-.3-.1-.5-.2-.7-.9-2.4-2.4-4.6-4-7-1.5-2.3-3-4.7-4.1-7.2-1.7-4.1-1.2-8-.8-11.8.2-1.4.3-2.8.4-4.2-2.4-1.9-3.4-3.7-3-5.5.1-.2.2-.4.5-.5 1.1-.2 2 0 2.6.5 1.1.9 1.1 2.6 1.1 4.2v.7c.3.2.7.5 1.1.8.3-2.5.6-5.1-.4-7.1-.6-1.1-1.1-2-1.6-2.7-1.2-1.9-2.1-3.3-1.9-7.3.2-2.9 1.2-5 2.2-7.3.3-.6.6-1.3.9-2-3.4.3-8.3 4.2-11.9 7-1.5 1.2-2.9 2.3-4.1 3.1-.4.2-.7.5-1.1.8-2.1 1.5-4.7 3.4-7.3 1.7-.4-.3-.7-.6-1-1-.8 1.3-1.9 2.4-2.7 2.9-2.6 1.5-7.9 3-11 3.4-.3 0-.6-.2-.7-.5-.7-7.2 7.1-8.7 11.8-9.7.6-.1 1.1-.3 1.7-.4 0-.9.1-1.6.3-2.2.1-.3.4-.4.7-.4.9.2 1.5.7 1.8 1.2 1.9-1.3 3.4-3 5.1-5 .7-.8 1.4-1.6 2.1-2.5 3.8-4.2 7.4-7.2 12.7-10.6 1.9-1.2 3.6-2.7 5.3-4.1 2.2-2 4.6-4 7.5-5.4 2.2-1.1 3.9-2.1 5.4-3.3.1-.2.1-.4.2-.6C77.3 8 86.2 0 92.6 0c3.6 0 8.7 2.4 10.2 5.7.6 1.3.9 3.2-.9 5.4-1.4 1.6-3.1 2.6-4.9 3.5-2.6 1.4-5 2.7-5.8 6.1-.4 1.7-.2 4 .3 6.1.8.7 1.5 1.3 2.7 1.3-.4-1.3-.4-2.4-.1-3.4-.8-.5-1.3-1.2-1.5-1.9-.7-2.9 3.7-6.3 7.2-9.1 1.2-.9 2.2-1.7 2.6-2.2.2-.2.4-.3.7-.2.2.1.4.3.4.6-.1 3.6-2.6 6.1-4.7 8.4-1.3 1.3-2.4 2.5-3.1 3.9.6.3 1.3.5 2 .6.2 0 .3.2.4.3.1.2.1.4 0 .5-1.5 3.4-.7 5.8.1 8.5.1.3.2.6.3 1 1.4 1 2.7 2.1 3.8 4.1 1.4 2.7 3 4.3 4.8 6.1.9.9 1.8 1.8 2.8 3l.2.2c.8.1 1.8 0 2.9-.1 1.4-.1 2.9-.3 4.2-.1 1-.2 1.9-.4 2.8-.6.5-.1 1-.2 1.4-.3.2 0 .4 0 .6.2.3.3.5.6.7.9.3-1.1 1.7-2 2.8-2.7 2.9-1.7 7.2-2 11-2.2 1.7-.1 3.3-.2 4.6-.4 1.8-.3 3.8-1.2 5.6-2 2.3-1 4.7-2.1 7-2.2.2 0 .3.1.4.2.1.1.2.3.2.5-.2 2.9 1.9 6.3 4.4 7.6.6.3 1.4.5 2.4.5-.2-.2-.3-.4-.5-.6-1.3-1.7-2.7-3.4-3.6-5.6 0-.1-.1-.2-.1-.3-.9-.8-1.6-1.9-2.2-3.6-1.1-3-1.3-7.8.7-11.2 1.1-1.9 2.8-3.1 4.8-3.5 4.3-.8 6.9 1.8 9.5 4.2 1.4 1.4 2.9 2.8 4.6 3.6 1.1.5 3.2.9 4 .9.3 0 .5.1.6.4.1.2 0 .5-.2.7-.8.7-1.9 1.3-3 1.7.7.3 1.3.6 2 .9.2.1.4.3.3.6 0 .2-.2.5-.4.5-1.4.5-2.9 1.5-4.2 2.5-2.7 1.9-5.6 3.9-9 2.8-.3-.1-.5-.4-.4-.7.2-1.1.7-2.4 1.3-3.9 1.1-2.8 2.4-6.1 1.4-8-.5-.9-1.4-1.5-2.8-1.8-1.8-.4-3.3 0-4.5 1.3-2.4 2.8-2.6 8.7-1.5 11.9.8.6 1.8.9 3.3 1.2.2.1.5.1.8.2 1.8.4 4.1.8 4.5 2.3.2.9-.3 1.9-1.6 3.1-.5.5-1.1.9-1.7 1.1 1.3 1.8 2.4 3.9 2.8 6.8.1 1 .2 2 .1 2.9.1-.7.3-1.2.6-1.7.2-.3.9-1.3 1.9-1.2 1.2.1 1.8 1.7 2.4 3.3.1.4.3.7.4 1l.5-.5c-1.1-2-2-4.3-2.6-6.1-.2-.6-.4-1-.5-1.4-.1-.2-.1-.4-.2-.6-1.5-3.4-2.2-5.8-1.4-6.9.6-.8 1.3-1.2 1.9-1.1 1.4.3 2 2.4 2.6 4.4 0 .2.1.3.1.4.3.9.8 1.9 1.2 3 .6 1.4 1.3 2.8 1.5 4 .4 2.3-.2 3.4-1.1 4.4 1.1 1.8 2.3 3.1 3.7 3.1h.1c.5-1.2.5-2.5.6-3.8.1-1.2.1-2.5.5-3.7.3-1 .9-1.8 1.4-2.7.1-.2.2-.3.3-.5-.2-.3-.3-.6-.5-.9-.5.2-1 .4-1.7.2-.2 0-.3-.2-.4-.4-.1-.2-.1-.4.1-.5.3-.5.7-1.2 1.2-1.9-1.2-5.3.2-13.6 5.9-15.3 2.8-.9 6.3-.4 9 1.2 2.3 1.4 3.8 3.5 4.2 5.8.2.8.1 4.2-.6 5.1-.7.9-1.2 1.3-1.7 1.3-.5-.1-.8-.5-.9-.9-.1-.2-.3-.5-.5-.7-.2-.2-.4-.4-.5-.6.5 1 1.5 3.8-1.3 7.4-1 1.3-2.2 2.3-3.4 3 .9.4 1.9.1 3-.2.8-.2 1.6-.5 2.6-.5 4.7-.4 12.2 4.1 13 8.9v.2h2.6c1.5.1 2.6.1 3.4-.2.3-.7.9-1.4 1.5-2.1.1-.8 0-1.5-.1-2.3-.2-1.3-.4-2.9.7-4.7 1.3-2.2 3.1-4.2 4.9-6 1.6-1.8 3.3-3.6 4.5-5.5.3-.6.7-1.2 1.1-1.9 1.2-2.1 2.4-4.3 3.7-5.2 1.5-3.8 5.4-8.1 9.1-10.4 3.3-2 6.2-2.4 8.2-1 1.5 1.1 2.5 2.5 3.5 3.9 1.2 1.8 2.4 3.5 4.7 4.3 3 1 8.5.2 10.8-2.3 1.6-1.7 2.1-4.4 1.9-7.2 0 .2-.1.4-.1.6-.9 2.6-3.6 4.4-5.6 5.5-2.5 1.4-5.7 2.9-7.8 1.7-1.2-.6-1.6-1.7-2-2.6-.5-1.3-.8-1.9-2.6-1.5-.2 0-.3 0-.5-.1-.1-.1-.2-.2-.3-.4-.2-1.2-.2-2.4-.1-3.5.1-1 .1-2 0-2.8-.2-1-.8-1.8-1.5-2.6s-1.3-1.7-1.6-2.8c-1.3-4.9 2.8-9 7.4-10.4 5.9-1.7 10.7.1 12.5 4.7.4 1.1 1 3.3 1.4 5.6.1-.1.2-.2.4-.3 1.6-1 3.8.7 5.6 2.2.7.5 1.3 1.1 1.7 1.3 1.5.7 3 1 4.7 1.3 1 .2 2.1.4 3.2.7 4 1.2 9.5 3.3 12.1 7.4 2.8.6 5.5 1.6 7.1 3.1 4.8 4.1 5.9 10.3 7 16.3 1 5.7 2 11 6 13.9.1.1.2.2.2.3.8 2.6 1.3 5-.5 7.6-.8 1.2-2.8 3-4.8 3.4-.8.1-1.6 0-2.2-.4-.9-.6-1-1.8-1.1-2.9 0-.5-.1-.9-.2-1.2-.1-.3-.4-.7-.6-1.2-.5-.8-.7-1.3-.8-1.7-.3-1.4-.1-2.7.1-3.9.2-1.2.4-2.4.2-3.7-.4-2.8-1.9-5.5-3.4-8.1-.8-1.4-1.7-2.9-2.3-4.4-1.2-2.9-2.5-5.2-4.2-7.1-1.9 1.6-3.6.4-5.2-.7-1-.7-2-1.4-3.1-1.4-1.2 0-2.2.3-2.8 1-2.1 2.3-1.4 7.9-.9 11.3.1.6.1 1.1.2 1.6.4 3.6-.3 6.1-2.1 7.8-.7.6-1.5 1.1-2.4 1.5.3 1.6.7 3.2 1.1 4.8 1.9-.2 3.9-.2 5.3.4.2.1.3.2.3.4.2.7.2 1.8-.9 2.8-.7.6-1.6 1.2-2.8 1.7.7 1.5 1.3 3 1.5 4.4.2 2.2-.7 3.9-1.5 5.6-.4.8-.9 1.7-1.2 2.6-.7 2-1.1 4.5-1.4 6.6-.1.7-.2 1.4-.4 2.1-.4 2.2-.6 4.4-.7 6.6-.3 4-.6 8.2-2.3 11.9-1.1 2.5-6.2 9-9.6 9.3 0 .4.1.8.1 1.2.3 2.8.5 5.7-.1 8.5-.2 1.1-.8 2.2-1.4 3.3-.2.4-.4.8-.6 1.3 1.1.4 2.2 1.4 3.5 3 .2.2.2.6 0 .8-.8.8-1.8 1.4-3 1.9 0 .1.1.1.1.2 2.3.2 4.4.8 6.5 1.4 3.5 1 6.8 1.9 10.3.8 2.1-.7 4.1-1.8 5.9-2.9 1.4-.8 2.8-1.6 4.3-2.3 5-2.2 9.4-1.4 14-.5 5.7 1.1 10 4.3 14.1 7.4 3.6 2.8 7.4 5.6 12.2 6.9 1.5.4 5.3 1.5 7.4 1 2.2-.5 3.7-1.5 4.4-3.1.1-.3.5-.4.8-.3.3.1.4.5.3.8-.9 2-2.7 3.2-5.3 3.8-.6-.6-1-.6-1.5-.6zm-87.9-11.5c-.3 1-.3 1.8 0 2.6.5 1.3 1.8 2.4 3.8 3 .4.1.8.3 1.3.4 2.6.9 5.9 1.9 8.4 1.4 0-.8-1.3-2.3-2.4-3.4-.2-.2-.3-.4-.5-.5-3.4-.1-7.5-1.5-10.1-3.2-.2-.1-.4-.2-.5-.3zm11.1 2.3c.1 0 .1 0 0 0 1.5 0 2.6-.3 3.3-.8-.2-.6-.6-1.3-1-1.9-3.1-.1-3.6.4-3.6.5-.1.4.6 1.3 1.3 2.2zm-10.6-3.5c.2.2.4.3.7.5 2.3 1.5 5.6 2.6 8.4 2.9-.7-1-1.1-1.8-.7-2.6.1-.2.2-.3.3-.4-3 .2-6.1-.2-8.3-.8-.3.1-.4.3-.4.4zm-1-3.1c-.5.3-.6.4-.7.5-.2.5 0 1.1.7 1.8 0 0 0-.1.1-.1-.2-.1-.3-.2-.3-.3-.1-.2 0-.3 0-.5.3-.6.3-1 .2-1.4zm1.9 1.6c3 .8 7.5 1 10.9.2-.4-.8-.6-1.7-.5-2.7 0-.4.1-.9.3-1.3-1.1-.1-2.3.2-3.9.5h-.2c-.4.1-.9.2-1.6.3-.7.1-1.6.2-2.5.4-.9.7-1.8 1.5-2.5 2.6zm-166.1-28c-.3 1.3-.9 2.7-1.9 4.4-2.9 4.8-3.7 10.3-4.5 15.5-.5 3.3 2.8 7.8 5.3 8.2.4.1 1.5.2 1.9-2 .2-1.4-.1-2.8-.5-4.3-.4-1.4-.8-2.9-.6-4.4.2-2.3 1.3-4.4 2.4-6.3.3-.5.5-1 .8-1.5 1.9-3.7 2.9-7 3-10-1.6.5-3.9.6-5.9.4zm177.9 24.3c-.1.4-.2.8-.2 1.1-.1.8.2 1.6.5 2.3.9-.3 1.8-.7 2.4-1.3-1-1.1-1.8-1.7-2.7-2.1zm-12.6 1.7c.1.2.1.5.1.8.3-.4.6-.7.9-1.1h-.1l-.9.3zM249 60.8c.2 7 1.6 13.8 3.2 20 1 4.2.3 7.5-.5 10.9-.3 1.1-.5 2.3-.7 3.6-.5 2.8.3 5.2 1 7.8.6 2 1.2 4.1 1.2 6.3 0 3.1-1.1 5.8-2.1 8.5-.6 1.5-1.2 3.1-1.6 4.8 0 .2-.1.4-.1.6-.4 1.7-1.2 4.9-.7 6.3.2.7.8 1.2 1.3 1.7l.6.6c.9-.3 2.1-.6 3.3-.8.3-.3.7-.6 1-.9 1.8-1.5 3.4-3 4.6-5.4.9-1.8 1.6-3.7 2.3-5.5.6-1.7 1.3-3.4 2.1-5.1-.1-.4-.3-.8-.3-1.3-.5-3.5.7-7.1 1.9-10.7.7-2 1.3-4 1.7-6 .1-1.3.2-2.6.2-3.9v-1.6c0-2.2.1-4.6-.6-6.8-.2-.7-.5-1.4-.7-2.1-.7-1.8-1.3-3.4-1.3-5.7 0-.2.1-.3.2-.4.1-.1.3-.2.5-.2 2.8.2 3.8 6 3.2 18.2v.4c0 .7-.1 1.5-.3 2.2-.3 2.9-.7 5.6-1.2 8.4-.3 1.5-.6 3.1-.8 4.7 0 .2-.1.5-.1.7.6-1 1.3-1.9 1.9-2.8 2.1-3.1 4.3-6.2 5.4-9.7 1.7-5.5 1.1-10.9.5-16.7-.1-1-.2-2.1-.3-3.2l-.1-.9c-.2-2.7-.5-5.3-.8-7.9-3.7.5-7.1.5-8.4.1-2.3-.7-3.9-2.3-5.6-3.8-1.1-1.1-2.3-2.2-3.6-2.9-1.5-.8-3.1-1.1-4.7-1.3-.6-.1-1.1-.2-1.6-.2zm-97.4 53.9c-.1.3-.2.6-.2.9-.2 1.1-.1 2.3 0 3.6.1 1.6.3 3.2-.1 4.7-.1.5-.5 1.3-.9 2.2-.7 1.5-1.8 3.8-1.3 4.7.4.6 1.2.9 2.4.8 1.4-.1 2.7-.7 3-1.4.1-.3-.2-1.3-.4-1.9-.2-.8-.4-1.5-.4-2.1.1-.8.5-1.8.8-2.7.1-.2.2-.4.2-.6.2-.4.3-.8.5-1.2.8-1.9 1.6-3.9 1.8-5.9 0-.3 0-.5.1-.8-.2.2-.5.4-.8.6-1.5.7-3.6.3-4.7-.9zm113 .7c-.6 1.4-1.2 2.9-1.7 4.4-.7 1.8-1.4 3.7-2.3 5.6-1.2 2.3-2.8 3.9-4.4 5.3.2 0 .4-.1.6-.1.6-.1 1.2-.2 1.5-.2h.2c1.8-.4 3.3-.6 4.6-.5.2-.5.5-1 .8-1.5.5-1 1.1-2 1.2-3 .5-2.6.3-5.3 0-8.1 0-.5-.1-1-.1-1.5-.1-.2-.3-.3-.4-.4zm-120.2 1.7c0 .4-.1.9-.2 1.3-.3 1.3-.9 2.2-1.5 3.1-.8 1.3-1.5 2.4-1.3 4.2.2 2 1 3.5 1.9 3.8.6.2 1.2-.1 2-.8 1.2-1.2 2.5-5.4 2.6-7.2.2-2.8-.6-3.1-1.8-3.6-.5-.1-1.1-.3-1.7-.8zm26.3 11.4c1.8 1 3.5 1.2 5 .5 1.6-.7 2.8-2.5 3.2-4.8.3-2.1-.1-3.7-.6-5.4-.6-2-1.2-4.1-.4-6.9.1-.3.2-.7.3-1.1.2-.7.4-1.5.6-2.4-1.1-.6-2.5-1.7-3.7-2.9h-1.6c-.2 1-.3 2-.3 3.1 0 4 .7 7.9 1.3 11.6.8-.3 1.8-.4 3-.3.2 0 .4.2.5.4.6 1.6 1 4.8-.4 6.4-.5.5-1.4 1.1-2.9.8-.3-.1-.4-.3-.5-.5-.2-1.6-.5-3.3-.7-4.9-1.1 1-1.6 2.6-2.3 4.6 0 .6-.2 1.2-.5 1.8zm13.6-28.8c-.8 0-1.4.2-1.9.7-1.8 2.1 0 8.4 1 11.8.3 1 .5 1.8.6 2.4.6 3.5.1 4.9-1.1 8l-.2.5c-.1.3-.2.5-.3.8-.6 1.5-1.1 2.7-.7 3.5.2.5.8.8 1.7 1.1 1.1.3 1.9.3 2.5-.1 1.4-1 1.5-4.2 1.5-7 .1-2 .1-3.9.6-5.3-1.1-.1-2.1-.6-3-1.5-1.9-1.9-1.4-5.4-.9-8.8.3-2.4.6-4.6.2-6.1zM64.9 116.8c.4 1.6.9 3.1 1.7 4.5.6 1.1 1.6 2 2.6 2.8 1 .9 1.9 1.7 2.6 2.9.1.2.1.4 0 .6-.1.2-.3.4-.4.5.8-.7 1.4-1.5 1.5-2.5.2-1.7-.4-3.4-1-5.1-.7-2.1-1.5-4.2-1.1-6.6.6-3.4 3.3-5.4 5.8-7.2.4-.3.9-.6 1.3-.9 4.3-3.3 4.1-4.4 4-4.5 0-.1-.3-.6-2.5-.6-.9 0-1.7.1-2.6.2-1.1.2-2.3.3-3.6.2-.9-.1-1.8-.3-2.7-.5-.3-.1-.7-.2-1-.2-.1 1.1-.5 2.2-1.1 3.3.5 1.1.9 2.2.9 3.4-.1 2-1.1 3.6-2.1 5.3-.6.9-1.1 1.9-1.5 2.9-.4.5-.6 1-.8 1.5zm-.6 2.4c-.2 1.6-.2 3.2.6 4.7.7 1.6 2.7 3.8 4.3 3.9.5 0 .9-.1 1.3-.6-.5-.8-1.3-1.5-2.1-2.2-1-.9-2.1-1.8-2.8-3.2-.5-.7-.9-1.6-1.3-2.6zm111.2 7.2c.6 0 1-.1 1.3-.5.8-1 .7-3.3.2-4.8-1 0-1.7.1-2.3.3.3 1.6.6 3.3.8 5zm-23.2-12.8l.2.2c.7.8 2.4 1.1 3.4.7.5-.2.8-.6.8-1.1-.4 0-.7-.1-1-.1-1.7-.1-2.7-.2-3.4.3zm113.8-1c0 .7 0 1.4.1 2.1 2.4-.2 7.3-5.8 8.6-8.6 1.6-3.6 1.9-7.4 2.2-11.5.2-2.2.3-4.5.8-6.8.1-.7.2-1.3.4-2.1.4-2.2.8-4.7 1.5-6.8.3-1 .8-1.9 1.3-2.8.8-1.6 1.6-3 1.4-4.9-.1-1.2-.7-2.6-1.4-4.1-2.1.7-4.5 1.3-7 1.6.3 2.6.6 5.2.8 7.9l.1.9c.1 1.1.2 2.1.3 3.2.6 5.7 1.2 11.5-.5 17.2-1.1 3.7-3.3 6.9-5.5 10-1.2 1.6-2.2 3.1-3.1 4.7zm-73.5-21.7c0 .2.1.4.1.6.6 2.5 1.2 5.1 1.2 7.9.1 5.3-1.4 8.9-3.1 13.1-.3.6-.5 1.3-.8 2 2.1-.8 3.8-3 4.3-4.8.5-2.2.3-4.1.2-6.1-.1-.8-.2-1.7-.2-2.6 0-.8.2-2 .4-3.4.3-2.1.8-5 .2-5.9-.3-.3-1.2-.6-2.3-.8zM67.5 105.1c-.2.3-.3.6-.5.9-1.2 2.2-2.5 4.5-2.5 6.8 0 .5 0 1 .1 1.6.4-.9.9-1.8 1.4-2.6.9-1.6 1.8-3.1 1.9-4.7 0-.7-.2-1.4-.4-2zm198.3-.4c-.9 2.8-1.5 5.4-1.2 7.9.1-.1.1-.2.2-.3 0-1 .1-2 .2-3 .3-1.6.6-3.1.8-4.6zM150.7 90.4c.8 0 1.6.2 2.5.5.2.1.4.3.4.6.1 3-.4 5.8-.9 8.6-.4 2.2-.8 4.4-.9 6.7 0 .3 0 .6-.1 1-.1 1.4-.2 3.3.1 4.8 1-.6 2.3-.5 3.9-.3.5 0 1 .1 1.6.1v-4.1c0-3.1 0-6.4.5-9.7.2-1.4.7-2.9 1.2-4.2.7-2 1.4-3.9.7-4.7-.5-.7-2-.9-4.4-.7-1.6.1-3 .7-4.5 1.2-.1 0-.2.1-.3.1.2 0 .2 0 .2.1zm-1.1 1.2c-1 .1-1.9.5-2.6 1.1-1.8 1.5-2.8 4.5-2.4 7.7.3 2.7 0 4.9-.2 7.3-.1.5-.1 1.1-.2 1.6-.1.9 0 1.8 0 2.8.4-.1.9-.2 1.3-.3.8-.1 1.8-.3 2.3-.7 1.3-1.1 1.3-5.6 1.3-7.4v-.1c0-1.7.2-3.4.3-5.1.1-2.3.3-4.6.2-6.9zm27.3 13.9c.7.6 1.5 1.2 2.2 1.6 0-.3.1-.6.1-.8 0 0 0-.1-.1-.1-.3-.5-1.2-.6-2.2-.7zm-90.8.2c2 .2 4.3.1 5.6-.5-.1-1.8-.5-3.5-1.3-5-1.7-3.2-4.4-5.1-7.6-6.6.1.6.3 1.1.5 1.6.3.4.6.9 1 1.3 1.1 1.5 2.3 3 2.6 4.3.4 1.2.4 2 0 2.6-.2.3-.4.5-.7.6 0 .5 0 1.1-.1 1.7zm-3.3-.7c.6.3 1.3.5 2.1.6.1-.5.1-.9.1-1.4h-.1c-.7.1-1.5.2-2.1.8zm93.1-.7c1.3 0 2.5.1 3.4.5 0-.8-.2-1.5-.6-2.1-.5-.7-1.2-1.1-2.3-1.3-.8-.1-1.3-.1-1.7 0-.1.4-.2.8-.4 1.1.2.5.7 1.1 1.3 1.7.1.1.2.1.3.1zm-2.1 0h.2c-.1-.1-.1-.2-.2-.2.1 0 .1.1 0 .2zM82.6 92.1c3.6 1.6 7 3.6 8.9 7.5.7 1.4 1.2 3 1.4 4.6.9-1.3 1.3-3.8 1.6-5.8.2-1 .3-1.9.5-2.6 1.9-7.7 1.6-16.2-.9-24-1.2.3-2.4.6-3.5.8-.8.2-1.5.3-2.1.5-5.3 1.4-12.2 2.7-18.1.4-3.1-1.2-5.7-2.3-7.8-3.5-.1.6-.1 1.1-.2 1.7-.2 3.9.5 7.1 2.2 10 2.9 4.9 8.1 6.7 13.2 8.5.5.2 1.1.4 1.6.6-1.5-2.9-2.9-6.2-2.1-8.9.4-1.3 1.4-2.4 2.9-3 .2-.1.5-.1.7.1 1.2 1.3 1 3.9.9 6.2 0 1-.1 1.9 0 2.6.3 1.6.5 3 .8 4.3zm92.8-9.1c-.7 2.4-.8 4.5-.8 6.8 0 1.1 0 2.2-.1 3.5-.1 1-.7 2.4-1.4 4-1 2.3-2.3 5.2-1.4 6.4.2.3.6.4 1 .5.1-.5.3-1.1.5-1.6-.1-.4-.2-.7-.1-1.1.1-.4.4-.8.8-1 .2-.5.3-1.1.5-1.6.2-.7.4-1.6.6-2.6.5-2.5 1-5.4 2.4-6.7 1.3-1.2 3.5-1.4 5.5-1.3-3.2-1.3-5.9-3-7.5-5.3zm-90.2 17c.3.9.6 1.7.8 2.5 0-.2 0-.6-.2-1.3-.1-.4-.3-.8-.6-1.2zm-17.8.1c-.2.6-.1 1.3.2 2.1.3-.7.5-1.3.5-2-.3-.1-.5-.1-.7-.1zm13.8-8.5c-.2-1.2-.3-2.3-.4-3.5-.1-.7 0-1.7 0-2.7.1-1.8.2-3.9-.4-5-.9.5-1.5 1.2-1.8 2.1-.9 2.5 1.1 6.3 2.6 9.1zM144 77.2c-.4.2-.8.5-1.2 1.1-1.1 1.6-.7 3.8-.3 5.9.1.7.3 1.4.4 2.1 0 .4.1.7.1 1 .1 1.3.2 2.2.7 2.5.5.4 1.5.4 3.1.1.8-.1 1.6-.4 2.4-.6-.2-1-.5-2.1-1-3-.3-.7-.7-1.3-1-2-1.2-2.3-2.4-4.6-3.2-7.1zm31.9 4.4c2.5 4.3 9.7 7.1 15 7-.4-2.2-.7-4.4-.5-6.9.5-5.1 2.7-10.4 5.8-14.1.2-2.5.9-4.6 2.7-5.2.2-.1.5 0 .6.1.4.4.8.8 1.2 1.3 1.1-.5 2.3-.7 3.6-.1.6.3 1.2.7 1.6 1.1.3-.8.5-1.6.3-2.4-.7-4.2-7.5-8.3-11.7-7.9-.8.1-1.6.3-2.3.5-1.5.4-3.1.9-4.8-.3-1 .3-2.1.4-3 .2-1.4-.3-2.7-1.1-3.6-2.4v.1c-.5.8-1 1.6-1.3 2.4-.3 1.1-.4 2.2-.5 3.4-.1 1.5-.2 3.1-.8 4.5 0 .1-.1.1-.1.2.3.2.6.4.8.7 1.2 1.1 1.7 3.6 1.3 5.7-.3 1.5-1.1 2.6-2.3 3.1h-.1c1 2.3-.3 5.5-1.4 8.1-.2.2-.4.6-.5.9zm20.2-11.9c-2.4 3.4-4.1 7.9-4.5 12.1-.2 2.3 0 4.5.5 6.7.1 0 .3 0 .4-.1 4.9-.7 4.6-4.8 4.2-9.4-.1-.7-.1-1.5-.2-2.2 0-.5-.1-1.1-.1-1.8-.2-1.5-.3-3.4-.3-5.3zM159.2 79c-.5 2.8 0 5.5 2.1 7.3 1.6-1.4.9-4.5 0-6.9-.1-.2-.1-.3-.2-.5-.6.1-1.3.1-1.9.1zM266 77.1c.1 1.6.6 2.9 1.1 4.2.1.2.1.4.2.6-.3-2.9-.8-4.2-1.3-4.8zm-89.1-3.2c-1.7 2.1-2.2 4.2-1.6 6.2.7-2 1.7-4.4 1.6-6.2zM160 76.1c-.2.6-.4 1.1-.5 1.7h1.2c-.3-.6-.6-1.1-.7-1.7zm-14.9-.3c.8 0 1.7.2 2.5.5.7.2 1.3.4 2.1.5.3 0 .8.1 1.4.2 1.7.3 4.4.8 7.1.9.2-.8.4-1.5.7-2.2-4.7.7-9.5 1.5-14.1-.2 0 .2.1.3.1.5.1-.2.2-.2.2-.2zm15.8-.6c.2.6.4 1.3.8 2.1 0 .1.1.2.1.3 1-.2 1.8-.5 2.4-1.1.4-.4.6-1 .6-1.7-1.3.1-2.6.3-3.9.4zm-16.4-1.3c4.5 1.9 9.2 1.2 14.2.4.2 0 .4-.1.7-.1 0-.1.1-.1.1-.2 0-1 .2-2.1.7-3.5.6-1.4 1.2-2.6 1.8-3.7 1.8-3.7 3.3-6.6 2.7-11.8-.3-2.8-1.4-4.7-2.7-6.6-1.2.3-2.5.1-3.7-.5-2.8-1.4-5-4.9-5.1-8.1-1.9.2-3.9 1.1-5.9 2-1.9.9-3.9 1.8-5.9 2.1-1.4.2-3 .3-4.8.4-3.7.2-7.8.5-10.4 2.1-2.4 1.4-2.3 2.1-2.3 2.2.3 1 4.4 1.7 9.7 1.7H135.3c4.3-.1 10.8-.2 13.2 3.2 2.3 3.2.2 7.2-1.6 10.7-1 2-2 3.9-2.2 5.5-.4 1.7-.3 3-.2 4.2zm-81.6-5c2.1 1.2 4.8 2.4 8 3.7 5.5 2.1 12.2.8 17.3-.5.7-.2 1.4-.3 2.1-.5 1.1-.2 2.3-.5 3.4-.8-1-2.9-2.3-5.7-3.9-8.2-2.1-3.4-2.5-9.4.1-12.2a5 5 0 0 1 1.6-1.1c.2-.3.3-.7.5-1 .8-1.4 1.9-2.4 3-3.4.8-.8 1.6-1.5 2.1-2.3-3.4-1.3-7.6-3-10.3-6-1.5-1.6-2.2-3.8-2.4-6.1-2.9-2.4-4.3-6.7-4.7-10.2-.9 1.7-.9 4.3-.5 6.2.1.2 0 .5-.2.6-.2.1-.5.1-.7 0-3.1-2.1-4.4-5.2-4-8.9-1.3.9-2.8 1.8-4.6 2.6-2.6 1.3-4.7 3.2-7 5.2-1.7 1.5-3.4 3-5.4 4.2-5.1 3.3-8.7 6.2-12.4 10.3-.8.8-1.4 1.7-2.1 2.5-1.8 2.1-3.4 4-5.6 5.4.2 1.1-.3 2.6-.9 3.9.3.5.6.9 1 1.1 1.9 1.2 3.9-.3 5.9-1.7.4-.3.8-.6 1.2-.8 1.1-.7 2.5-1.8 4-3 4.3-3.4 9.7-7.7 13.6-7.3.2 0 .4.1.5.3.1.2.1.4 0 .5-.4 1-.8 2-1.3 2.9-1 2.1-1.9 4.2-2.1 6.8-.2 3.6.5 4.7 1.7 6.6.5.8 1 1.6 1.6 2.8 1.2 2.5.8 5.5.5 8.4zm77.9 2.6c.8.7 1.6 1.3 2.4 1.7-.1-1.1-.1-2.2 0-3.4.2-1.8 1.2-3.8 2.3-5.9 1.6-3 3.2-6.1 2.2-8.6 0 1.2-1.2 2.6-2.3 3.9-.5.5-.9 1-1.1 1.4-1.5 2.5-2.3 6.1-3.1 9.2-.1.6-.3 1.2-.4 1.7zm33.4-7.1c.1 0 .2 0 .3.1.7.4 1.3.9 1.4 2 0 .4-.1 1.1-.3 1.8-.3 1.1-.7 2.8-.2 3.3.1.1.6.3 2-.2 1-.4 1.4-1.5 1.5-2.2.3-1.7-.1-3.7-.9-4.6-.9-.8-1.8-1.1-2.9-1.3-1.2-.3-2.6-.6-3.7-1.9-.1.1-.1.2-.2.3-1.1 1.9-.8 4.4.1 5.6.1.2.5.6.8.5.5-.1 1.1-.9 1.6-3 0-.2.2-.3.4-.4h.1zm-8.3-4.8c-.4 2.9-1.6 5.2-2.8 7.7-.6 1.1-1.1 2.3-1.7 3.6.3-.5.7-.9 1-1.3 1.2-1.6 2.3-3.1 3-4.9.4-1 .4-2.5.4-3.9.1-.4.1-.8.1-1.2zm-75-8.5c-.1 0-.1 0 0 0-2.2 2.4-1.8 7.8 0 10.8 1.6 2.6 3 5.5 4 8.5 1-.3 2-.7 2.7-1.2 1-.7 1.6-1.2 1.6-1.6 0-.5-.7-1.1-1.6-1.9-.3-.3-.6-.6-1-.9-4.9-4.9-6.8-9.4-5.7-13.7zm115.8 14.7l.6.9c.9 1.4 1.8 2.7 3.6 3 1.4.2 3.6-1 5.4-2.7-1.5-.4-2.6-1-3.1-1.8-1.4 1.2-3.2 1.8-4.5 1.4-.5-.2-1.3-.6-1.7-1.8.1.3-.1.7-.3 1zm89.4-31.2c1.9 2.1 3.3 4.5 4.6 7.5.6 1.4 1.4 2.9 2.2 4.3 1.5 2.7 3.1 5.5 3.5 8.5.2 1.5 0 2.8-.2 4-.2 1.2-.4 2.4-.1 3.5 0 .2.4.9.7 1.3.3.5.6 1 .7 1.4.2.4.2 1 .3 1.5.1.8.2 1.7.6 2 .3.2.8.3 1.3.2 1.4-.2 3.1-1.7 4-2.9 1.5-2.1 1.1-4 .4-6.4-4.3-3.2-5.3-8.7-6.3-14.6-1-5.8-2.1-11.7-6.6-15.6-1.3-1.1-3.4-2-5.6-2.6.7 2 1.7 5.7.5 7.9zM249 59.5c.5.1 1.1.2 1.6.3 1.7.2 3.5.5 5.1 1.5 1.4.8 2.6 2 3.8 3.1 1.6 1.5 3.1 3 5.1 3.5 1.2.4 4.4.3 7.9-.1-.2-1.7-.5-3.3-.9-5-1.4-.1-2.8-.4-4.5-.7-.6-.1-1.4-.2-2.4-.4-5.5-.8-14.6-2.2-14.6-6.7 0-.2.1-.5.4-.5 3-1.3 8.1-.5 13.4.4 2 .3 4 .7 5.9.9-1-5-.7-11.3.9-15.9 1.9-5.7 6.9-12.4 14-14.5 2.1-.6 5.2-.7 8.4-.2-2.6-3.2-7.3-4.9-10.8-5.9-1-.3-2-.5-3-.7-1.7-.3-3.4-.6-5-1.4-.5-.3-1.2-.8-1.9-1.4-1.3-1.1-3.3-2.7-4.2-2.1-.3.2-.5.7-.5 1.3 1.4 4.1 2.8 10.8-.8 14.7-2.7 2.9-8.6 3.8-12.1 2.7-2.6-.9-4-2.8-5.3-4.7-.9-1.4-1.8-2.7-3.2-3.6-2.1-1.5-5.2 0-6.8 1-3.5 2.2-6.8 5.9-8.3 9 .9.1 1.7.9 2.4 2.3 1.4-.5 2.8-1.3 4.3-2.1 2.7-1.5 5.5-3 8.7-2.9 2.3.1 4 .8 5 2.2 2.1 3 .5 8-.5 11.4v.2c-1.6 4.7-2.1 9.5-2.1 14.3zm-47.5 5.3c.6.9 1.1 1.8 1.3 2.8.8-.2 1.6-.7 2.3-1.5.1-.1.1-.2.2-.2-.4-.5-.9-.8-1.4-1.1-.9-.3-1.7-.3-2.4 0zm71.4-1.9c.3 1.6.6 3.1.8 4.7 2.3-.3 4.7-.9 6.6-1.5-.4-.9-.8-1.8-1-2.6-.1-.3-.2-.5-.2-.8h-.3c-.7.1-1.4.1-2 .2h-3.9zm-215.3.3c0 1 .6 2.1 1.9 3.2 0-1.2-.1-2.4-.7-2.9-.3-.2-.7-.3-1.2-.3zm141.3.5c-.7.4-1.1 1.3-1.3 2.4.5-.5 1.2-1.1 2-1.7l-.7-.7zm15.3.5c.2.7 1.1 1.3 2.6 1.7.2 0 .4.1.6.1.7-.9 1.3-1.8 1.7-2.7.6-1.5.4-2.6-.5-3.2-.5-.3-.9-.5-1.3-.4-.5.1-1 .7-1.4 1.3 0 .1-.1.2-.1.3-.2.5-.4.9-.7 1.2 0 .1-.1.2-.1.3-.3.5-.6 1-.8 1.4zm66.2-1.7c.1.2.1.4.2.6.2.8.6 1.6 1 2.5 1-.4 1.9-.9 2.5-1.5.5-.5.7-.9.7-1.4-1.3-.3-2.9-.3-4.4-.2zm-72.2 1.2c.1.7.4 1.5 1.1 1.8 1 .4 2.6-.3 3.7-1.6v-.2c-1 .2-2 .1-3.1.1-.6-.1-1.2-.1-1.7-.1zm10.1-5.1c.3.1.7.3 1 .5 1.4 1 1.7 2.6.9 4.6-.1.3-.2.5-.4.8 1.7-2 3.2-5.8 4.3-8.8.9-2.2 1.6-4.2 2.3-5.2.8-1.2 1.9-2.2 2.9-3.1.9-.8 1.8-1.6 2.5-2.6 1.3-1.7 1.8-2.6 1.8-3.8-1 .7-1.9 1.4-2.8 2.3-2 1.9-3.4 4.1-4.8 6.4-1.5 2.3-3 4.6-5.1 6.7-.3.3-.8.7-1.3 1.1-.3.3-.8.6-1.3 1.1zm54.3 3.1c1.3.1 2.7.1 4.1 0 .6 0 1.2-.1 1.9-.2h.2c-.4-1.5-.7-3-1-4.6-1.9.4-4.1.5-6.4.3.1.2.1.5.2.7.4 1.2.7 2.5 1 3.8zm-100.5-1.3c.6.7 1.2 1 1.8 1.3-.5-.5-.9-1.1-1.4-1.8-.1.1-.3.3-.4.5zm79.3-4.9c.6 3.2 9.3 4.4 13.5 5.1 1 .1 1.9.3 2.5.4 1.4.3 2.7.5 4 .6l-.9-3.3-.3-1.2c-2.1-.2-4.3-.6-6.4-.9-5-.9-9.6-1.7-12.4-.7zm-4.9 3.3c.4.2.9.4 1.3.5 0-4.8.5-9.7 2-14.4v-.2c1-3.1 2.5-7.9.7-10.3-.8-1.1-2.1-1.7-4.1-1.7-2.8-.1-5.4 1.3-8.1 2.7-1.4.8-2.9 1.6-4.4 2.1 0 .1.1.2.1.4.2.4.3.8.4 1.2.9-.5 1.9-1 2.9-1.5.5-.2 1.3-.7 2.2-1.2 2.4-1.3 4.1-2.2 4.9-2.3.7-.1 1.4.1 1.9.6 1.4 1.4 1.4 4.7 1.3 7.6 0 1.3-.1 2.5.1 3.4.5 3-.1 5.7-.6 8.5-.2 1.4-.5 3-.6 4.6zm-17.4-22.1c-.7 1-1.5 2.4-2.1 3.5-.4.7-.7 1.4-1.1 2-1.3 2.1-3 4-4.7 5.8-1.7 1.8-3.5 3.7-4.7 5.8-.9 1.5-.7 2.7-.5 4 .1.4.1.8.1 1.2.9-.9 1.9-1.7 2.8-2.4.5-.4 1-.8 1.3-1.1 2-1.9 3.5-4.2 4.9-6.4 1.4-2.3 2.9-4.6 5-6.6 1-1 2.2-1.9 3.4-2.7-.1-.4-.3-.9-.5-1.4-.1-.1-.1-.3-.2-.4-1 .3-2.1.5-3.2.4-.3 0-.5-.2-.6-.5.1-.5.1-.8.1-1.2zm-195 13.1c-.5.2-1 .3-1.6.4-5.8 1.2-11 2.7-10.3 8.3 3-.4 7.6-1.8 9.9-3.1.8-.5 1.9-1.7 2.6-3-.2-.9-.4-1.7-.6-2.6zm72.3 4.6c-.9 1.1-1.5 2.5-1.7 3.5 1.6-.6 2.7-2.4 3.7-4 .1-.2.2-.4.3-.5.1-.1.1-.2.1-.2.2-.3.3-.6.5-.8 1-1.5 1-1.8-.1-3-2-.4-3.9-1.8-6-3.4-1.7-1.2-3.4-2.5-5-3.1h-.1c-.7 1-1.6 1.9-2.5 2.7-1 .9-2 1.9-2.7 3.1 0 0 0 .1-.1.1 1.1 0 2.4.3 3.9 1.1 1 .5 1.9 1.1 2.8 1.7 2.2 1.4 3.9 2.5 5.9 1.8 1-1.3 2.3-2.4 3.5-2.8.3-.1.5 0 .7.2.2.2.1.5 0 .7-1 1.6-2.1 2.5-3.2 2.9zm62.3-10.5c-.1 0-.4.2-.7.6-.4.5.1 2.4 1.5 5.7l.3.6c.2.4.3.9.6 1.5.5 1.5 1.4 3.6 2.4 5.5.5-.7.8-1.6.5-3.1-.2-1.1-.8-2.4-1.4-3.7-.5-1.1-1-2.1-1.3-3.1 0-.1-.1-.3-.1-.4-.5-1.6-1.1-3.5-1.8-3.6.1 0 .1 0 0 0zM109.9 54c1.7 1.5 5 2.7 7.3 2.1 1.3-.4 2.1-1.3 2.3-2.7.3-1.5.1-2.6-.5-3.2-.4-.5-1.1-.7-1.8-.8-2.6.7-5.2 1.7-6.8 3.8-.1.1-.2.3-.3.4-.1.1-.1.2-.2.3.1 0 .1.1 0 .1zm161.2 1.9c2.4.2 4.6.2 6.5-.2-.1-.4-.2-.9-.3-1.4-1.1-5.2-2.5-12.4.4-18.4 1.5-3 3.7-5.1 6.3-5.9 2.4-.7 5-.4 7.6 1 1.4.8 2.6 1.6 3.6 2.5.6-1.9-.2-5.2-1-6.7-.1-.1-.1-.2-.2-.3-3.3-.6-6.8-.7-9 0-5.6 1.7-11.1 7.3-13.2 13.7-1.4 4.7-1.7 10.8-.7 15.7zm15.5-25c-.7 0-1.4.1-2.1.3-2.3.7-4.2 2.6-5.6 5.3-2.8 5.6-1.4 12.6-.3 17.6.1.4.2.8.2 1.2.7-.3 1.3-.7 1.8-1.1 1.5-1.4 2-3.6 1.7-6.8 0-.4-.1-1-.2-1.5-.5-3.8-1.2-9.5 1.3-12.2.9-1 2.2-1.5 3.8-1.4 1.4 0 2.6.9 3.7 1.7 1.6 1.1 2.6 1.7 3.7.8-1-.9-2.1-1.7-3.5-2.5-1.6-1-3.1-1.4-4.5-1.4zM123.1 49.8v1.1c0 .8-.1 1.5.3 2.1 1 1.4 3.2 1.4 4.9 1.4h.6c2 0 4-.4 5.9-.7 2.2-.4 4.4-.8 6.7-.7 0 0 3.9.3 5.5 1.2-2.3-2.5-8-2.4-11.9-2.4h-1.6c-3.3-.1-8.8-.3-10.4-2zm58.3 1.5c.9 1.3 1.9 2.1 3.2 2.3.6.1 1.1.1 1.7 0-1.8-2.1-1.9-6-1-8.6.7-2.3 2.2-3.6 4-3.8 1.4-.1 2.8.5 3.7 1.7-.2-.4-.4-.7-.5-1-.6-1.4-1-2.2-3.4-2.1-2.5.1-6.1 4-9.1 8.2 0 .1.1.3.1.4.4-.3.8-.7 1.3-.9.2-.1.4-.1.6 0 .2.1.3.3.3.5.1 1.3-.3 2.4-.9 3.3zm8.3-8.8h-.2c-1.3.1-2.4 1.2-3 3-.8 2.3-.7 5.8.8 7.4l.3.3c1.2-.5 2.4-1.5 3.5-2.9 1.7-2.1 2.2-4.4 1.2-6.1-.4-1-1.5-1.7-2.6-1.7zM35.3 49.4c.1.5.2.9.3 1.4.2-.6.4-1.2.4-1.7-.2.1-.5.2-.7.3zm75.7.1c.2.4.4.7.4 1 .6-.5 1.3-.9 2.1-1.2h-.4c-.7.2-1.5.2-2.1.2zm69.6.2c.1.1.1.2.2.4.1-.2.2-.5.3-.7l-.2.2c-.2 0-.2.1-.3.1zM35.2 47.4c0 .2-.1.4-.1.7.2-.1.4-.2.5-.3 0-.1-.2-.3-.4-.4zm63.7-5.5c1.8.7 3.5 2 5.2 3.2 1.3.9 2.5 1.8 3.6 2.4l-1.5-1.5c-1.8-1.8-3.5-3.5-5-6.4-.6-1.2-1.4-2.1-2.2-2.8.1.5.2 1.1.3 1.6.2 1.4 0 2.5-.4 3.5zm59.8 0c.8 1.5 1.9 2.8 2.9 4.1.3.4.6.7.8 1.1.5-.2 1.1-.6 1.6-1.1 1.3-1.2 1.3-1.7 1.3-1.9-.2-.7-2.3-1.1-3.5-1.4-.3-.1-.6-.1-.8-.2-.8-.1-1.6-.3-2.3-.6zm28.8-8.6c-.9 0-1.8.1-2.6.4-4.6 1.4-5.9 8-5.2 12.8 2.5-3.5 6.2-7.6 9.3-7.8 3.2-.2 3.9 1.3 4.6 2.8.3.7.6 1.4 1.3 2 .4.4.6.8.7 1v.1c.1-.1.3-.3.6-.7.3-.4.5-3.2.4-4.1-.4-2-1.7-3.8-3.6-5-1.7-1-3.6-1.5-5.5-1.5zM85.8 31.4c.3 1.7.9 3.2 1.9 4.3 2.6 2.8 6.7 4.5 10 5.8.4-.8.5-1.7.4-2.9-.1-1.1-.4-2-.6-2.9-.3-.2-.7-.4-1-.7-1.3-.8-2.6-1.6-3.6-2.9-1-1.2-1.8-2.9-2.3-4.7l-.2-.2c.1 1.4.1 2.8 1.2 3.9.2.2.2.4.1.6-.1.2-.2.4-.5.4-2 .4-3.8.2-5.4-.7zm79.6 8.9c2.6.5 4.9-1.1 7.4-2.8 1.1-.7 2.1-1.5 3.3-2.1-.6-.2-1.1-.5-1.7-.7l-.7-.3c-.3-.1-.4-.4-.4-.7 0-.3.3-.5.5-.5.8-.1 1.9-.4 2.8-.9-1-.2-2-.5-2.8-.8-1.9-.9-3.4-2.4-4.9-3.8-2.4-2.4-4.7-4.6-8.4-3.9-1.7.3-3.1 1.3-4 2.9-1.7 2.9-1.6 7.3-.6 10.2.1.4.3.7.4 1.1-.4-3.5.1-7.9 2.3-10.4 1.4-1.7 3.4-2.3 5.7-1.7 1.7.4 2.9 1.2 3.5 2.4 1.3 2.5-.1 6-1.3 9-.5 1-.9 2.1-1.1 3zm65.3-5c-.2.6-.3 1.3-.3 1.8.7 0 1.4-.2 2.1-.3-.6-1.2-1.1-1.5-1.4-1.5-.2-.1-.3-.1-.4 0zM92.2 28.7c.4 1 .9 1.9 1.5 2.6.9 1.1 2 1.8 3.2 2.5-.8-2.5-1.5-4.9-.2-8.2-.5-.1-1-.3-1.5-.5-.2 1-.1 2 .4 3.2.1.2.1.4 0 .5-.1.2-.2.3-.4.3-1.2.3-2.2 0-3-.4zm-6.6 1.1c1.2.9 2.7 1.3 4.2 1.2-.7-1.2-.8-2.5-.8-3.8 0-.5 0-.9-.1-1.3 0-.2.1-.5.3-.6.2-.1.4-.1.6 0 .1 0 .1.1.2.1-.3-1.9-.3-3.7 0-5.2 1-3.9 3.7-5.4 6.4-6.8 1.7-.9 3.3-1.8 4.5-3.2 1.1-1.4 1.4-2.7.7-4.1-1.3-2.8-6-5-9.1-5-5.4 0-13.2 6.8-16 13.6 1.3-1.3 2.6-2.8 4.1-4.6 1.3-1.7 7.6-7.4 12.3-7 1.5.1 2.7.9 3.5 2.2 1.7 2.8-2.1 6.8-5.4 10.3-1.5 1.5-2.8 3-3.3 4-1.3 2.7-2.3 6.7-2.1 10.2zM80.3 18c.1 0 .2 0 .2.1.2.1.4.3.4.5.1 3.3 1.2 7.5 3.5 10.1 0-3.5 1-7.2 2.3-9.6.6-1.1 1.9-2.6 3.5-4.3 2.9-3 6.4-6.8 5.2-8.9-.6-1-1.4-1.5-2.5-1.6-3.8-.2-9.7 4.7-11.3 6.7-2.1 2.6-3.8 4.5-5.8 6.1-.6 2.5-.5 5.6 2 8-.2-2.3.1-5.3 2-7 .2 0 .3-.1.5-.1zm170.4 5.9c1.8 0 2.4 1.3 2.8 2.4.3.8.7 1.6 1.5 2 1.8 1 5.3-1 6.6-1.7 1.8-1 4.2-2.6 5-4.8.1-.4.1-1.2.1-2-.1.2-.2.4-.3.5-.7 1-1.7 1.5-2.9 1.5-.2 0-.5-.1-.6-.3-.1-.2-.1-.5.1-.6.8-1 2.1-3.7 1.5-4.7-.2-.3-.7-.5-1.4-.3-.4.1-.6.4-.8 1.3-.2.6-.3 1.4-.9 1.7-1.6.8-2.2.7-3.5.3-.2-.1-.5-.1-.8-.2-.2-.1-.5-.1-.9-.2-2.5-.6-5.2-1.2-6.9-2.2.3.5.6 1.1.7 1.7.2 1 .1 2.1.1 3.2-.1.9-.1 1.8 0 2.6.2-.2.4-.2.6-.2zM102 13.3c-.4.4-.9.8-1.5 1.2-2.9 2.3-7.2 5.7-6.7 7.9.1.4.4.8.8 1.1.7-1.5 2-2.8 3.3-4.1 1.7-1.9 3.5-3.7 4.1-6.1zm161.6 1.2c1.1 0 1.7.5 2 1 .7 1.2 0 3.3-.7 4.7.2-.2.4-.3.6-.6.8-1.2.9-3.4.7-5.5-.2-.5-.4-.9-.5-1.4-1.4-3.3-3.1-5.3-5.1-5.9-1.9-.6-4.3-.1-7.2 1.5-2.1 1.2-5.3 3.8-4.3 6.2.6 1.3 5.6 2.5 7.5 2.9.4.1.7.1.9.2.3.1.6.2.8.2 1.1.3 1.4.4 2.6-.3.1-.1.3-.6.3-.9.2-.8.5-2 1.8-2.2.1.1.4.1.6.1zm-6.2-11.3c-1.3 0-2.6.2-3.8.6-4 1.2-7.7 4.7-6.6 8.9.1.4.3.9.6 1.2-.4-3.5 4.5-6.3 5.1-6.7 3.2-1.9 5.9-2.4 8.2-1.6 1.7.6 3.1 1.8 4.4 3.8-.2-.7-.4-1.2-.5-1.6-1.5-3.4-4.4-4.6-7.4-4.6z"/></svg>