<?xml version="1.0" encoding="utf-8"?>
<!-- Generator: Adobe Illustrator 21.0.0, SVG Export Plug-In . SVG Version: 6.00 Build 0)  -->
<svg version="1.1" id="Layer_1" xmlns="http://www.w3.org/2000/svg" xmlns:xlink="http://www.w3.org/1999/xlink" x="0px" y="0px"
	 viewBox="0 0 242 113" style="enable-background:new 0 0 242 113;" xml:space="preserve" width="width%" height="100%">
<style type="text/css">
	.st0{fill:#FFFFFF;}
	.st1{fill:#AED8E7;}
</style>
<g>
	<g>
		<path class="st0" d="M0.5,108.8h29.5V68.3l25.6-25.3l28.2,24.4l-0.3,41.5l-21.2-0.1l-0.1-62.5l0.1-16.5L87,5.3l24.1,24.1L111,87.3
			H93.8V49.2l11-11.3L116.3,50l0.2,50.9l56.4-0.1l-0.1-29h-14l-0.1-20.6l7.9-0.1l-25.3-25.2l-0.2,0l-39,39l36.6,0l-0.1,44.9
			c0.6,0,104.1-0.5,104.1-0.5"/>
	</g>
	<g>
		<path class="st1" d="M138.5,110.7h-0.9l0-8.9l-22,0l-0.1-36h-3.5l0,22.4H92.8V48.8l12-12.2l5.3,5.6l0-12.4L86.9,6.6L63.3,30.1
			l-0.1,16.1l0,2l21.6,18.7l-0.3,42.8l-23-0.2L61.3,49l-5.6-4.8L31,68.7v41.1H0.5v-1.8h28.6v-40l26.5-26.2l5.7,4.9l0-0.4l0.1-16.9
			L87,4L112,29.1l0,15.1l4.6,4.8l24.1-24.1l1,0.2l27.1,27l-9.1,0.1l0.1,18.7h14l0.1,30.8l-34.4,0.1l0,7.1c19.2,0,99.9-0.5,103.1-0.5
			l0,1.8C239.2,110.3,139,110.7,138.5,110.7z M63.3,107.7l19.4,0.1l0.3-40.1L63.2,50.6L63.3,107.7z M117.3,65.8l0.1,34.2l20.1,0
			l0.1-34.1L117.3,65.8z M117.3,64l22.2,0l-0.1,36l32.5-0.1l-0.1-27.1h-14l-0.1-22.4l6.6-0.1L141,27.1l-23.8,23.8L117.3,64z
			 M94.7,86.4H110l0-20.6l-10.4,0l10.4-10.4l0-10.5l-5.3-5.6L94.7,49.6V86.4z M111.9,64h3.5l0-11.2l-3.5,3.5L111.9,64z M104.2,64
			l5.9,0l0-5.9L104.2,64z M112,46.8l0,6.8l3.3-3.3L112,46.8z"/>
	</g>
</g>
</svg>
