<svg width="32" height="32" viewBox="0 0 32 32" fill="none" xmlns="http://www.w3.org/2000/svg">
<g clip-path="url(#clip0)">
<path fill-rule="evenodd" clip-rule="evenodd" d="M14.7667 31.6038C14.9649 31.7353 15.1631 31.8668 15.36 32C15.5245 32 15.6885 32 15.8524 31.9994C15.9079 31.9698 15.9646 31.942 16.0213 31.9143C16.1481 31.8522 16.2748 31.7902 16.3876 31.708C17.0733 31.2089 17.7596 30.7106 18.4459 30.2124C20.5184 28.7078 22.5909 27.2033 24.6453 25.6732C26.9821 23.9328 28.173 21.5462 28.1959 18.6071C28.2174 15.8562 28.2137 13.105 28.2099 10.3537C28.208 8.90569 28.206 7.4576 28.2077 6.00951C28.2083 5.66218 28.0722 5.44825 27.7598 5.30982C23.8193 3.5694 19.8807 1.82458 15.944 0.0766138C15.7108 -0.026578 15.5041 -0.0253196 15.269 0.0791306C11.3323 1.82773 7.39371 3.57255 3.45203 5.31171C3.1365 5.45077 3.0041 5.66281 3.00472 6.00951C3.00644 7.46993 3.00457 8.93042 3.0027 10.391C2.99919 13.1296 2.99568 15.8683 3.01586 18.6071C3.03689 21.4581 4.15177 23.8176 6.40133 25.5342C8.17753 26.8886 9.98812 28.1972 11.7985 29.5056C12.3673 29.9167 12.9362 30.3278 13.5039 30.7403C13.9166 31.0399 14.3417 31.3218 14.7667 31.6038ZM27.3793 11.1806C27.3796 11.6786 27.3799 12.1767 27.3799 12.6748C27.3799 13.2729 27.3806 13.8709 27.3813 14.469C27.3829 15.8146 27.3844 17.1604 27.378 18.5064C27.3644 21.2681 26.265 23.4709 24.0563 25.0874C23.0678 25.8109 22.0785 26.5332 21.0892 27.2554C19.3734 28.5082 17.6577 29.7609 15.9459 31.0197C15.6947 31.204 15.5326 31.216 15.2715 31.0235C13.9021 30.015 12.5282 29.0128 11.1543 28.0106C9.79685 27.0204 8.4394 26.0302 7.08622 25.0339C4.97401 23.4791 3.86594 21.353 3.84243 18.7059C3.81866 15.962 3.82258 13.218 3.82649 10.4741C3.82849 9.07528 3.83049 7.67642 3.82882 6.27756C3.8282 6.09194 3.88264 5.99693 4.05464 5.92079C5.5697 5.2518 7.08418 4.5816 8.59865 3.9114C10.8703 2.90612 13.142 1.90084 15.4156 0.899631C15.5363 0.846777 15.7225 0.864395 15.8481 0.919766C17.763 1.76368 19.6765 2.61057 21.5901 3.45747C23.4147 4.26495 25.2392 5.07244 27.065 5.87738C27.2957 5.97931 27.3885 6.09572 27.3867 6.36502C27.3772 7.97039 27.3782 9.57539 27.3793 11.1806ZM6.19265 14.58C6.22636 14.7242 6.26044 14.8699 6.29227 15.0184C6.15486 15.0184 6.01784 15.0183 5.88114 15.0182C5.40422 15.018 4.93116 15.0178 4.45847 15.0202C4.1448 15.0209 3.96847 15.17 3.96971 15.4255C3.97095 15.6803 4.14356 15.8212 4.46219 15.8219C4.60299 15.8221 4.74379 15.8226 4.88459 15.8231C5.40762 15.8248 5.93057 15.8265 6.45313 15.8181C6.62698 15.8149 6.72164 15.8722 6.82496 16.0176C6.89283 16.113 6.95975 16.2098 7.02677 16.3068C7.28054 16.6739 7.53579 17.0432 7.84951 17.3484C8.88087 18.3507 9.93759 19.3279 11.0203 20.2723C11.9843 21.1134 12.9673 21.9321 13.9502 22.7507C14.3342 23.0706 14.7183 23.3904 15.1012 23.7116C15.348 23.9186 15.4903 23.9168 15.7384 23.7198C15.8053 23.6663 15.8721 23.6128 15.9364 23.5568C16.5708 23.0088 17.2049 22.4606 17.8391 21.9125C19.2682 20.6771 20.6972 19.4419 22.1276 18.2085C22.875 17.5648 23.5234 16.833 24.0431 15.9886C24.1235 15.8571 24.2132 15.8168 24.3605 15.8187C25.0553 15.8263 25.7495 15.8244 26.4442 15.8206C26.7097 15.8194 26.8711 15.6696 26.8773 15.4355C26.8841 15.1914 26.7183 15.0303 26.4461 15.0196C26.3874 15.0174 26.3284 15.018 26.2695 15.0185C26.2434 15.0187 26.2173 15.019 26.1912 15.019H24.5418C24.5445 14.9978 24.5462 14.9792 24.5478 14.9624C24.5508 14.9299 24.5532 14.9044 24.561 14.8812C24.9229 13.8046 24.994 12.7035 24.8251 11.5841C24.6463 10.3999 24.1817 9.36232 23.2753 8.56447C22.4568 7.84464 21.4848 7.51241 20.4219 7.41551C18.6549 7.25381 17.1361 7.78612 15.8912 9.08483C15.7801 9.20043 15.6774 9.32436 15.5723 9.45118C15.5218 9.51212 15.4708 9.57372 15.418 9.6354C15.3876 9.59745 15.3589 9.56074 15.331 9.52511C15.2725 9.45027 15.2176 9.38016 15.1593 9.31324C13.719 7.66217 11.9118 7.1116 9.81014 7.50675C8.18546 7.81192 7.005 8.72114 6.36775 10.2923C5.93096 11.3695 5.84743 12.499 6.00396 13.6441C6.04685 13.9564 6.11888 14.2644 6.19265 14.58ZM21.1503 15.0997C21.0872 15.1176 21.0223 15.1361 20.9546 15.1518C20.9257 15.0504 20.8955 14.9456 20.8645 14.8381C20.7709 14.5135 20.6703 14.1648 20.5778 13.814C20.5172 13.5875 20.4126 13.4164 20.1621 13.4176C19.9233 13.4189 19.8205 13.585 19.7581 13.8002C19.602 14.3394 19.4421 14.8773 19.2772 15.4319C19.2054 15.6734 19.1327 15.918 19.0589 16.1673C19.0476 16.1339 19.0374 16.106 19.0285 16.0815C19.0117 16.0354 18.9994 16.0017 18.9921 15.9672C18.7292 14.7264 18.4675 13.4856 18.2058 12.2441C18.1427 11.9453 18.0208 11.8144 17.8018 11.8106C17.5827 11.8068 17.4534 11.9327 17.3804 12.2284C17.2154 12.8982 17.0518 13.5684 16.8851 14.2508C16.823 14.505 16.7605 14.7608 16.6974 15.019H16.2204C16.0826 15.019 15.9448 15.0181 15.807 15.0173C15.4585 15.0151 15.1102 15.0129 14.7621 15.0246C14.6511 15.0281 14.541 15.0629 14.4203 15.1011C14.3628 15.1193 14.3029 15.1382 14.2393 15.1549C14.2364 15.1446 14.2313 15.1282 14.2249 15.1075C14.2114 15.0635 14.192 15.0005 14.1744 14.9372C14.1376 14.806 14.1012 14.6747 14.0649 14.5434C13.9905 14.275 13.9161 14.0066 13.8384 13.7392C13.7803 13.5391 13.6504 13.4132 13.4357 13.4157C13.2296 13.4176 13.1158 13.5403 13.0589 13.7348C12.8942 14.2963 12.7279 14.8576 12.556 15.4381C12.4845 15.6797 12.4119 15.9246 12.3381 16.1742C12.3265 16.1367 12.3164 16.1058 12.3077 16.079C12.2916 16.0298 12.2801 15.9946 12.2725 15.9584C12.0096 14.717 11.7479 13.4761 11.4862 12.2347C11.4249 11.9434 11.2969 11.8106 11.0741 11.81C10.8601 11.8087 10.7363 11.9276 10.6664 12.2114C10.6286 12.3646 10.5906 12.5178 10.5527 12.671C10.3743 13.3917 10.1959 14.1123 10.0254 14.8346C9.99142 14.9775 9.93821 15.0228 9.79529 15.0215C8.98481 15.0146 8.17495 15.0158 7.36446 15.0209C7.24134 15.0215 7.17267 14.9932 7.12503 14.8648C6.59481 13.4334 6.56202 11.9937 7.11637 10.5698C7.55254 9.44915 8.38035 8.72555 9.51998 8.40465C11.1527 7.94469 12.679 8.16177 14.0018 9.28933C14.3847 9.61589 14.6941 10.0444 14.9898 10.4609C15.2911 10.8844 15.5732 10.8951 15.8547 10.4509C16.9115 8.78469 18.4242 8.05543 20.3582 8.2184C21.3568 8.30271 22.2526 8.63997 22.9691 9.38119C23.6416 10.0771 23.9559 10.9429 24.071 11.8905C24.1891 12.862 24.1025 13.814 23.7709 14.7409C23.6979 14.9447 23.6119 15.0328 23.3823 15.0253C22.7655 15.0051 22.1474 15.0083 21.5306 15.024C21.4059 15.027 21.2821 15.0622 21.1503 15.0997ZM7.6426 15.8833C7.65548 15.8628 7.66852 15.842 7.68123 15.8212C8.08771 15.8212 8.49419 15.8212 8.90067 15.8219C9.03699 15.8219 9.1733 15.8219 9.30962 15.822C9.58226 15.8221 9.85489 15.8223 10.1275 15.8219C10.5272 15.8212 10.6095 15.7558 10.7054 15.3682C10.8124 14.9366 10.9207 14.5055 11.0642 14.0739C11.2208 14.812 11.3773 15.5507 11.5332 16.2894C11.5879 16.5499 11.6425 16.8104 11.6971 17.0709C11.7517 17.3314 11.8063 17.5919 11.8611 17.8524C11.9056 18.0638 12.0108 18.2173 12.2416 18.2274C12.468 18.2368 12.5942 18.1084 12.6574 17.8951C12.834 17.2941 13.0127 16.6938 13.1914 16.0935C13.2537 15.8842 13.3159 15.675 13.3781 15.4657C13.3861 15.439 13.3956 15.4127 13.4103 15.3715C13.4195 15.3459 13.4307 15.3146 13.4449 15.2738C13.4846 15.4128 13.5226 15.5459 13.5595 15.6749C13.6399 15.9566 13.7149 16.2191 13.7896 16.4819C13.7945 16.4995 13.7995 16.517 13.8046 16.5345C13.819 16.5847 13.8335 16.6349 13.8459 16.6858C13.8966 16.8922 14.0228 17.0249 14.2325 17.0268C14.441 17.0287 14.5697 16.8972 14.6341 16.6977C14.7027 16.4847 14.7726 16.2724 14.8437 16.0567C14.8693 15.9787 14.8952 15.9003 14.9211 15.8212C15.1416 15.8212 15.3608 15.8213 15.5792 15.8214C16.0135 15.8215 16.4446 15.8217 16.8756 15.8212C17.2381 15.8206 17.3297 15.7457 17.4194 15.3833C17.5283 14.9441 17.6378 14.5062 17.7807 14.0689C17.8488 14.3904 17.9171 14.712 17.9854 15.0335C18.0877 15.5155 18.1901 15.9974 18.2918 16.4794C18.3387 16.7009 18.3849 16.9224 18.4311 17.1438C18.4793 17.3747 18.5274 17.6054 18.5764 17.836C18.6314 18.0946 18.7614 18.2267 18.9661 18.2293C19.208 18.2324 19.3213 18.0839 19.3844 17.8662C19.5578 17.2708 19.7339 16.6759 19.91 16.081C19.9581 15.9183 20.0063 15.7556 20.0544 15.5928C20.0804 15.5047 20.1089 15.4179 20.1788 15.3311C20.214 15.4558 20.2481 15.581 20.2822 15.7061C20.3719 16.0356 20.4617 16.3651 20.5729 16.687C20.6187 16.8198 20.761 16.9608 20.8909 17.0067C20.967 17.0336 21.0769 16.9719 21.1781 16.9151C21.2045 16.9002 21.2303 16.8858 21.2547 16.8733C21.286 16.8571 21.3045 16.8123 21.322 16.7701C21.327 16.7581 21.3319 16.7464 21.337 16.7355C21.3498 16.7081 21.3588 16.6788 21.3677 16.6496C21.3725 16.6339 21.3773 16.6181 21.3827 16.6027C21.4104 16.5247 21.4318 16.4375 21.4531 16.3502C21.5018 16.1508 21.5506 15.9512 21.6754 15.8615C21.8028 15.7703 22.0067 15.7886 22.2101 15.807C22.2971 15.8148 22.384 15.8226 22.4648 15.8219C22.6279 15.8205 22.7913 15.8208 22.9662 15.821C23.0387 15.8211 23.1133 15.8212 23.1906 15.8212C23.1768 15.846 23.1656 15.8693 23.1552 15.8908C23.1359 15.9304 23.1196 15.9642 23.0959 15.9911C22.9786 16.1242 22.8637 16.2597 22.7487 16.3953C22.4753 16.7176 22.2019 17.0401 21.8975 17.3288C19.8707 19.2505 17.73 21.0387 15.58 22.815C15.5497 22.8399 15.5186 22.8635 15.4833 22.8902C15.4633 22.9054 15.4419 22.9216 15.4186 22.9396C15.2636 22.8109 15.1081 22.6833 14.9527 22.5557C14.598 22.2647 14.2441 21.9742 13.8991 21.6736C13.7041 21.5038 13.509 21.334 13.314 21.1642C11.8623 19.9004 10.4107 18.6367 8.97739 17.3515C8.64194 17.0506 8.34184 16.7092 8.04176 16.3679C7.90516 16.2125 7.76857 16.0571 7.62864 15.9056C7.63326 15.8982 7.63792 15.8908 7.6426 15.8833Z" fill="white"/>
</g>
<defs>
<clipPath id="clip0">
<rect width="32" height="32" fill="white"/>
</clipPath>
</defs>
</svg>
