<svg width="32" height="32" viewBox="0 0 32 32" fill="none" xmlns="http://www.w3.org/2000/svg">
<g clip-path="url(#clip0)">
<path d="M25.8573 25.506C25.358 25.384 24.8744 25.2849 24.419 25.2125C24.1552 25.1707 23.9759 25.0481 23.8189 24.8035C23.1089 23.6967 22.3845 22.573 21.6843 21.4864C21.1137 20.6007 20.5235 19.685 19.9437 18.7836C19.5223 18.1282 18.9589 17.8092 18.2214 17.8092C18.2018 17.8092 18.1815 17.8092 18.1619 17.8099C18.0408 17.8125 17.9119 17.8138 17.7562 17.8138C17.6449 17.8138 17.533 17.8132 17.4198 17.8125C17.304 17.8118 17.1869 17.8112 17.0678 17.8112H16.8714V17.6155V16.5557V16.36H17.0678H18.3981C18.438 15.5852 18.2273 14.9219 17.7856 14.4341C17.321 13.9214 16.6405 13.6481 15.8186 13.6449C15.689 13.6442 15.5594 13.6436 15.4292 13.6423C15.2388 13.641 15.0418 13.639 14.8488 13.639C14.5537 13.639 14.3116 13.6423 14.0864 13.6501C14.0714 13.6508 14.0563 13.6508 14.042 13.6508C13.7239 13.6508 13.5289 13.5157 13.4098 13.2125C12.6737 11.338 11.8263 9.93512 10.7439 8.79897C10.4756 8.51721 10.4926 7.96936 10.7793 7.6726C11.2105 7.22584 11.4565 6.77842 11.5305 6.30492C11.6083 5.80337 11.6142 5.27508 11.6188 4.76375L11.6195 4.70179C11.6299 3.68434 11.2386 2.87886 10.4226 2.2397C9.94494 1.86533 9.35928 1.66771 8.72847 1.66771C7.45441 1.66771 6.29879 2.46601 5.91926 3.60934C5.74519 4.13306 5.74781 4.66005 5.75108 5.21834C5.75174 5.34617 5.75239 5.47857 5.75108 5.60966C5.74127 6.3884 6.01218 7.06213 6.57886 7.66934C6.67702 7.77435 6.74834 7.90348 6.77386 8.02349C6.97999 8.99072 6.50753 9.71271 6.05078 10.4106C5.97422 10.5273 5.8957 10.648 5.8211 10.768L5.61759 11.0947L5.47232 10.7386C5.34014 10.4145 5.20861 10.0929 5.07839 9.77467C4.67268 8.78331 4.28987 7.84674 3.90838 6.8906C3.82462 6.67994 3.78012 6.43862 3.78339 6.211C3.79713 5.31943 3.18661 4.52439 2.332 4.32024C2.18673 4.28568 2.03753 4.26807 1.88964 4.26807C1.15086 4.26807 0.49191 4.692 0.169306 5.37356C-0.201068 6.15817 0.0541367 7.12475 0.776561 7.6713C0.970909 7.8187 1.14105 8.03523 1.23069 8.24981C1.84973 9.73293 2.47531 11.2421 3.0806 12.7018C4.2938 15.6283 5.54888 18.6545 6.81051 21.6181C7.19986 22.5332 7.20117 23.2598 6.81443 24.0483C6.50099 24.6868 6.24906 25.3423 5.98273 26.0362C5.86952 26.3304 5.75239 26.6349 5.63133 26.9356L5.5672 27.0954L5.39969 27.0517L5.28844 27.023C5.2145 27.0041 5.1471 26.9865 5.0797 26.9682C4.96191 26.9363 4.84347 26.9017 4.72896 26.8678C4.47833 26.7941 4.24145 26.7243 3.99802 26.6806C3.88875 26.661 3.77816 26.6506 3.67019 26.6506C2.90784 26.6506 2.28816 27.1339 2.12784 27.8539C1.94723 28.664 2.42885 29.4042 3.29916 29.6534C7.76589 30.933 11.9676 31.6648 16.1444 31.8904C16.4769 31.9087 16.8132 31.9361 17.1384 31.9622C17.2883 31.9746 17.4381 31.987 17.588 31.9981H24.627L24.68 31.9752C24.7455 31.9472 24.8109 31.9185 24.877 31.8917C25.2389 31.7417 25.5203 31.4463 25.6492 31.0804C25.7781 30.7139 25.7454 30.3245 25.5569 29.9834C25.2847 29.4903 24.8443 29.2594 24.1703 29.2581L23.811 29.2575C22.2798 29.2536 20.6962 29.2496 19.1382 29.2288C18.6585 29.2222 18.1736 29.1916 17.7045 29.1622C17.4924 29.1492 17.2726 29.1349 17.0566 29.1238L16.8708 29.114V28.9281V23.3439V23.1482H17.0671C17.2346 23.1482 17.4008 23.1489 17.5657 23.1502C17.7274 23.1508 17.8877 23.1521 18.048 23.1521C18.3222 23.1521 18.5447 23.1495 18.7495 23.143C18.7626 23.1424 18.775 23.1424 18.7881 23.1424C19.0799 23.1424 19.271 23.2526 19.4274 23.5115C19.9038 24.2994 20.3959 25.0957 20.8723 25.866C21.1622 26.3349 21.4619 26.8202 21.7557 27.2989C21.9749 27.6569 22.2275 27.8252 22.5501 27.8278L22.6351 27.8285C23.156 27.833 23.6939 27.8383 24.2233 27.8383C24.7507 27.8383 25.2153 27.8337 25.6439 27.8233C26.2198 27.8096 26.6975 27.3719 26.7557 26.8052C26.8198 26.166 26.4678 25.6553 25.8573 25.506ZM13.739 14.2814C14.3613 14.2814 15.0431 14.2827 15.8833 14.2847C16.7406 14.2873 17.3773 14.7191 17.6318 15.4691L17.7195 15.7274H17.446H15.7132C15.2931 15.7274 14.8737 15.7274 14.4542 15.7267C14.0348 15.7267 13.6146 15.7261 13.1952 15.7261C12.4217 15.7261 11.4009 15.7267 10.3696 15.7326H10.3624C10.064 15.7326 9.88736 15.6139 9.77153 15.3361C9.56802 14.8482 9.35535 14.3545 9.14923 13.8764C8.97516 13.4727 8.79521 13.0553 8.6218 12.6431C8.54066 12.45 8.49486 12.2576 8.49028 12.0874C8.4785 11.6413 8.78278 11.2637 9.21401 11.19C9.2729 11.1802 9.33114 11.175 9.38807 11.175C9.76499 11.175 10.0712 11.3941 10.208 11.762C10.3304 12.0913 10.4416 12.4298 10.5489 12.7566C10.5908 12.8844 10.6327 13.0116 10.6752 13.1394C10.7053 13.2301 10.7367 13.3207 10.7675 13.4114C10.8519 13.6566 10.9383 13.9097 11.0103 14.166C11.0397 14.2723 11.0548 14.2893 11.1941 14.2893H11.2C11.9781 14.284 12.8078 14.2814 13.739 14.2814ZM16.1667 16.39V16.5857V28.842V29.0585L15.9507 29.037L15.4901 28.9914L14.9463 28.9372L14.7696 28.9196V28.7429V16.5857V16.39H14.9659H15.971H16.1667ZM6.43817 5.8725C6.37993 5.0755 6.40938 4.4533 6.52978 3.91457C6.73525 3.00148 7.63632 2.31209 8.62638 2.31209C8.7036 2.31209 8.78082 2.31666 8.85607 2.32579C10.0503 2.46732 10.8702 3.28975 10.9455 4.42134C10.9566 4.587 10.9533 4.75201 10.9507 4.9118C10.9494 4.98159 10.9481 5.05072 10.9481 5.12051C10.9913 5.75771 10.9618 6.48884 10.422 7.09083C9.93709 7.63151 9.37106 7.90609 8.73959 7.90609C8.50925 7.90609 8.26975 7.86892 8.02633 7.79456C7.0716 7.50368 6.50753 6.82147 6.43817 5.8725ZM6.12342 11.5735C6.31842 11.2115 6.53633 10.8573 6.74638 10.5143C6.80331 10.4217 6.85958 10.3291 6.91651 10.2364C6.95643 10.1712 6.997 10.1066 7.03823 10.0421C7.3255 9.58814 7.57416 9.19616 7.40729 8.62809L7.30783 8.28829L7.64941 8.38547C8.03091 8.49373 8.39605 8.54852 8.73566 8.54852C9.02228 8.54852 9.29253 8.50939 9.53858 8.43177L9.68057 8.38742L9.76172 8.51199C9.82192 8.6033 9.87296 8.69005 9.92269 8.77418C10.0163 8.93202 10.0974 9.06833 10.1988 9.17333C11.2013 10.211 12.0167 11.518 12.69 13.1701C12.7116 13.2229 12.728 13.2712 12.7391 13.3162C12.7515 13.3664 12.745 13.4075 12.7404 13.4375C12.7391 13.446 12.7371 13.4564 12.7358 13.4688L12.7175 13.6442H12.5408C12.476 13.6442 12.4113 13.6462 12.3432 13.6475C12.2752 13.6494 12.2045 13.6508 12.1338 13.6508C12.0036 13.6508 11.8976 13.6442 11.7994 13.6312C11.6116 13.6051 11.4598 13.4049 11.4114 13.2705C11.3185 13.0122 11.2314 12.7481 11.1477 12.4924C11.0384 12.1605 10.9258 11.818 10.8002 11.4887C10.5803 10.9134 10.0097 10.5123 9.41228 10.5123C9.38022 10.5123 9.3475 10.5136 9.31544 10.5162C8.58516 10.571 8.03352 11.0354 7.87648 11.7274C7.79206 12.0991 7.8346 12.4722 8.00604 12.8674C8.4569 13.9064 8.96731 15.0837 9.45809 16.2557C9.50128 16.3587 9.52222 16.3718 9.64589 16.3718H9.65178C10.2158 16.3685 10.8218 16.3666 11.6162 16.3666C11.9323 16.3666 12.2477 16.3666 12.5637 16.3672C12.8791 16.3672 13.1952 16.3679 13.5106 16.3679H13.8941H14.0904V16.5635V20.2133V20.4089H13.8941H13.6061C13.2927 20.4089 12.9793 20.4089 12.6652 20.4083C12.3517 20.4083 12.0383 20.4076 11.7248 20.4076C10.9658 20.4076 10.386 20.4096 9.84417 20.4135H9.8337C9.53792 20.4135 9.37302 20.3052 9.2657 20.0398C8.77362 18.8234 8.2691 17.5875 7.78225 16.392C7.22145 15.0171 6.64168 13.5953 6.0763 12.195C5.99582 11.9935 6.03901 11.73 6.12342 11.5735ZM1.89095 7.38563H1.88768C1.55853 7.38563 1.24967 7.2578 1.01868 7.02626C0.784414 6.79147 0.656157 6.47775 0.657466 6.14317C0.660083 5.459 1.2019 4.92289 1.89095 4.92289H1.906C2.58393 4.93006 3.11986 5.46487 3.1264 6.13926C3.12902 6.46927 3.00142 6.78103 2.76715 7.01778C2.53224 7.25388 2.22141 7.38498 1.89095 7.38563ZM3.08518 11.0028L2.05193 8.5146C2.03099 8.46373 2.01267 8.41351 1.99827 8.37307C1.99304 8.35873 1.98845 8.34568 1.98453 8.33459L1.92105 8.16437L2.08661 8.08871L2.67358 7.8213L3.23961 7.56368L3.42218 7.4802L3.50136 7.66412C3.51314 7.69217 3.52622 7.72217 3.54062 7.75347C3.57399 7.82913 3.61129 7.91522 3.64728 8.00262L4.47899 10.0375C5.92907 13.5842 7.42823 17.2516 8.89533 20.8622C8.96731 21.0396 9.01639 21.0729 9.20354 21.0729H9.21597C9.81472 21.0664 10.4514 21.0631 11.2799 21.0631C11.6483 21.0631 12.0167 21.0638 12.3857 21.0644C12.7535 21.0651 13.1213 21.0657 13.4884 21.0657H13.6716H13.8856H14.0819V21.2614V22.271V22.4478L13.9058 22.466C13.8856 22.468 13.8646 22.4712 13.8424 22.4738C13.7861 22.481 13.722 22.4895 13.6546 22.4895C13.082 22.4901 12.5094 22.4901 11.9375 22.4901C10.7276 22.4901 9.47641 22.4901 8.24619 22.4947H8.24227C7.96547 22.4947 7.80253 22.3858 7.69718 22.1295C6.16464 18.4191 4.59939 14.6486 3.08518 11.0028ZM14.0864 23.1515V23.3471V28.6457V28.8779L13.8568 28.8381L11.1876 28.3789L8.95684 27.9954L8.72585 27.9557L8.80568 27.7359L9.14072 26.813C9.41425 26.059 9.67992 25.3286 9.94559 24.5981C9.97112 24.5283 9.99598 24.4592 10.0215 24.3894C10.1308 24.0874 10.244 23.775 10.367 23.4711C10.4187 23.3432 10.5712 23.1619 10.7465 23.16C11.4238 23.1521 12.1076 23.1508 12.6874 23.1508C12.8863 23.1508 13.0859 23.1508 13.2855 23.1508C13.4864 23.1508 13.6879 23.1508 13.8895 23.1508H14.0864V23.1515ZM6.27523 27.0882L6.5324 26.4471C6.95185 25.4029 7.34709 24.4174 7.75411 23.4189C7.80384 23.2969 7.95173 23.1626 8.1042 23.1587C8.36398 23.1521 8.62311 23.1508 8.82008 23.1508C8.9287 23.1508 9.03798 23.1508 9.14988 23.1515C9.2644 23.1515 9.38087 23.1521 9.49997 23.1521H9.78004L9.6845 23.4143L8.55506 26.513L8.15589 27.6087L8.09504 27.775L7.92294 27.732L7.27118 27.5682L6.40872 27.3511L6.19082 27.2963L6.27523 27.0882ZM21.7995 29.9234C22.2294 29.9234 22.6665 29.9221 23.0893 29.9201C23.3818 29.9188 23.6743 29.9182 23.9668 29.9175H24.0093H24.097C24.1284 29.9175 24.1592 29.9175 24.1906 29.9182C24.9824 29.9247 25.0648 30.4236 25.0635 30.6382C25.0622 30.9017 24.9451 31.3445 24.1814 31.3458C23.5748 31.3471 22.9676 31.3471 22.361 31.3471C21.9736 31.3471 21.5862 31.3471 21.1988 31.3471C20.8114 31.3471 20.424 31.3471 20.0366 31.3471C19.8423 31.3491 19.6434 31.3504 19.4464 31.3504C14.1787 31.3504 8.81877 30.573 3.51379 29.039C3.01712 28.8955 2.76127 28.6137 2.7521 28.2015C2.74294 27.7783 2.96347 27.4632 3.32795 27.3791C3.43985 27.353 3.56221 27.34 3.69178 27.34C3.85406 27.34 4.02747 27.3615 4.19303 27.4013C4.87684 27.5676 5.56851 27.7476 6.23728 27.9217C7.50937 28.2531 8.82531 28.5955 10.1314 28.8551C11.9277 29.2125 13.7207 29.4303 15.7106 29.6579C17.6371 29.8777 19.538 29.9234 21.7995 29.9234ZM18.4243 22.4758H17.0658H16.8695V22.2801V21.3123V21.1609L17.0167 21.1231C17.2412 21.0651 17.3819 21.0416 17.501 21.0416C17.8641 21.0416 18.0388 21.2777 18.2299 21.5868C18.3065 21.7108 18.3824 21.836 18.4655 21.9716L18.5918 22.179L18.7737 22.4764H18.4243V22.4758ZM25.9914 27.0008C25.89 27.113 25.731 27.1743 25.5445 27.175H25.5098C25.301 27.175 25.089 27.1711 24.8842 27.1671C24.6814 27.1632 24.4713 27.1593 24.2665 27.1593C23.9465 27.1593 23.6854 27.1691 23.4446 27.1913C23.3733 27.1978 23.3039 27.2011 23.2391 27.2011C22.6633 27.2011 22.27 26.9506 21.9245 26.363C21.1621 25.067 20.3553 23.7672 19.5746 22.5097C19.1781 21.8712 18.7685 21.2118 18.3693 20.5596C18.2868 20.4246 18.2312 20.4031 18.1298 20.4031C18.12 20.4031 18.1095 20.4031 18.0984 20.4037C17.9754 20.4102 17.8425 20.4135 17.6809 20.4135C17.5808 20.4135 17.4794 20.4122 17.3773 20.4109C17.2745 20.4096 17.1698 20.4083 17.0645 20.4083H16.8682V20.2126V18.6271V18.4223L17.0736 18.4321C17.2255 18.4393 17.3792 18.4438 17.5271 18.4484C17.872 18.4588 18.2293 18.4699 18.5774 18.5117C19.0276 18.5658 19.2769 18.9532 19.4255 19.1841C19.9038 19.927 20.3828 20.6698 20.8618 21.4127C21.7243 22.7497 22.6155 24.1318 23.4878 25.4949C23.599 25.669 23.7057 25.7414 23.8948 25.7714C24.2887 25.8347 24.684 25.9162 25.0668 25.9958C25.216 26.0264 25.3645 26.0577 25.5137 26.0871C25.5229 26.089 25.5333 26.0903 25.5432 26.0916C25.604 26.1001 25.6963 26.1125 25.767 26.1862C25.7885 26.209 25.8147 26.2332 25.8429 26.2593C25.9567 26.3656 26.0856 26.4862 26.1026 26.6558C26.1144 26.7876 26.0765 26.9069 25.9914 27.0008Z" fill="white"/>
<path d="M23.5579 8.77809C24.4073 9.56856 25.4778 10.0395 26.5732 10.1047C26.6799 10.1112 26.7885 10.1145 26.8952 10.1145C29.2411 10.1145 31.2657 8.59351 31.818 6.41578C31.8645 6.23251 31.9064 6.04272 31.9463 5.8588C31.9639 5.77792 31.9816 5.6977 31.9999 5.61748V4.59351C31.9954 4.57786 31.9908 4.56286 31.9862 4.5472C31.9685 4.48981 31.9489 4.42459 31.9384 4.35415C31.7755 3.23626 31.2121 2.19012 30.3535 1.40812C29.4943 0.626773 28.3983 0.164357 27.2675 0.105006C27.1746 0.10044 27.0804 0.0978314 26.9881 0.0978314V0V0.0978314C25.5282 0.0978314 24.1475 0.718735 23.2 1.8014C22.24 2.89777 21.8055 4.37502 22.0084 5.85554C22.1582 6.94929 22.7085 7.98761 23.5579 8.77809ZM26.956 0.751997H26.9803C29.3792 0.751997 31.3351 2.70341 31.341 5.10289C31.3436 6.26578 30.8882 7.36279 30.0591 8.19175C29.2313 9.01875 28.1346 9.47465 26.9711 9.47465H26.9691C25.8024 9.47399 24.7004 9.01158 23.8655 8.17284C23.0357 7.33931 22.5829 6.24686 22.5907 5.09767C22.6078 2.7145 24.5656 0.765042 26.956 0.751997Z" fill="white"/>
<path d="M20.917 16.765V17.4198H21.0924H22.761H24.4297C25.1416 17.4198 25.8536 17.4198 26.5655 17.4205C27.8703 17.4218 29.1758 17.4238 30.4806 17.4257L32.0001 17.4283V16.7474H31.1461H30.9498V16.5518V10.5247H30.3V16.5478V16.7435H30.1037H29.0515H28.8552V16.5478V11.5813H28.2093V16.5374V16.7331H28.013H26.9523H26.7559V16.5374V13.1368H26.1114V16.5433V16.7389H25.9151H24.8668H24.6705V16.5433V14.6969H24.0279V16.5387V16.7344H23.8316H22.7774H22.5811V16.5387V15.7463H21.9424V16.5687V16.7644H21.7461H20.917V16.765Z" fill="white"/>
<path d="M28.1764 4.07044C28.1286 4.06978 28.0808 4.06978 28.0337 4.06978C27.9565 4.06978 27.8819 4.07044 27.8139 4.07044C27.753 3.88912 27.6974 3.72281 27.6398 3.55062C27.6548 3.55062 27.6719 3.55062 27.6889 3.55062C27.6974 3.55062 27.7059 3.55062 27.715 3.55062C27.7183 3.55062 27.7216 3.55062 27.7255 3.55062C27.8099 3.55062 27.895 3.55062 27.9794 3.55062C28.0455 3.55062 28.1116 3.55062 28.177 3.54997C28.2772 3.54932 28.3629 3.51019 28.4211 3.41757C28.4846 3.31648 28.4944 3.20756 28.4427 3.09669C28.3897 2.98385 28.3033 2.92646 28.1868 2.92581C27.7164 2.92516 27.2465 2.92581 26.776 2.92516C26.5928 2.92516 26.4096 2.92516 26.227 2.92516C26.0667 2.92516 25.907 2.92516 25.7467 2.92581C25.6171 2.92646 25.517 3.00146 25.4738 3.12408C25.3999 3.3354 25.5386 3.54736 25.7565 3.54932C25.8134 3.54997 25.8704 3.54997 25.9267 3.54997C26.0523 3.54997 26.1786 3.54867 26.3042 3.54867C26.4024 3.54867 26.5005 3.54932 26.5993 3.55128C26.8709 3.55715 27.0626 3.70781 27.1824 3.9726C27.1948 4 27.2014 4.03065 27.2138 4.06913C27.1713 4.06913 27.1418 4.06913 27.1117 4.06913C27.1058 4.06913 27.0993 4.06913 27.0934 4.06913C26.8539 4.06913 26.6137 4.06913 26.3742 4.06913C26.1688 4.06913 25.9633 4.06913 25.7578 4.06978C25.6165 4.06978 25.5157 4.14348 25.4719 4.27262C25.4005 4.48524 25.5406 4.69264 25.7598 4.6933C25.9273 4.69395 26.0942 4.6946 26.2617 4.6946C26.4953 4.6946 26.7289 4.69395 26.9632 4.69395C26.9645 4.69395 26.9664 4.69395 26.9678 4.69395C26.9828 4.69395 26.9979 4.69395 27.0136 4.69395C27.0456 4.69395 27.0803 4.69395 27.1255 4.69395C26.9835 4.89222 26.8192 4.99657 26.6131 5.00114C26.4979 5.00375 26.3828 5.0044 26.2676 5.0044C26.1491 5.0044 26.0307 5.00375 25.9123 5.00375C25.8593 5.00375 25.8063 5.00375 25.7532 5.0044C25.5916 5.0057 25.4693 5.1218 25.4555 5.28224C25.4437 5.42181 25.5026 5.51965 25.6047 5.59595C25.9757 5.87314 26.3455 6.15229 26.7165 6.43078C27.0267 6.66362 27.3355 6.89907 27.6476 7.12865C27.702 7.16843 27.7609 7.18735 27.8171 7.18735C27.9513 7.18735 28.0717 7.08299 28.0926 6.91668C28.1103 6.7745 28.0468 6.67275 27.9421 6.59449C27.5416 6.29578 27.1431 5.99511 26.7433 5.69444C26.7198 5.67683 26.6975 5.65726 26.6687 5.63443C26.6857 5.62856 26.6923 5.62465 26.6995 5.62335C27.1994 5.5503 27.5416 5.25485 27.7327 4.74091C27.7412 4.71808 27.7798 4.69656 27.8054 4.6959C27.8544 4.69395 27.9035 4.69395 27.9526 4.69395C27.9958 4.69395 28.0383 4.6946 28.0815 4.6946C28.1136 4.6946 28.1456 4.6946 28.1783 4.69395C28.3027 4.69134 28.3976 4.63199 28.4486 4.50416C28.5369 4.29349 28.3969 4.0737 28.1764 4.07044Z" fill="white"/>
</g>
<defs>
<clipPath id="clip0">
<rect width="32" height="32" fill="white"/>
</clipPath>
</defs>
</svg>
