<?xml version="1.0" encoding="utf-8"?>
<!-- Generator: Adobe Illustrator 19.0.0, SVG Export Plug-In . SVG Version: 6.00 Build 0)  -->
<svg version="1.1" id="Layer_1" xmlns="http://www.w3.org/2000/svg" xmlns:xlink="http://www.w3.org/1999/xlink" x="0px" y="0px"
	 viewBox="0 0 252 314" style="enable-background:new 0 0 252 314;" xml:space="preserve">
<style type="text/css">
	.st0{fill:#FFFFFF;}
	.st1{fill:#010101;}
</style>
<g id="XMLID_1_">
	<path id="XMLID_79_" d="M120.2,140.4c0-6.1,0-12.2,0-18.3c0-8.8,0.2-17.7-0.2-26.5c-0.1-2.1-1.5-4.8-3.2-6
		c-10.2-7.4-26-6.4-35.8,1.9c-5,4.2-6.1,4.2-11.1,0c-10.3-8.8-26.7-9.1-37.4-0.8c-1.3,1-2.5,2.2-3.9,3.1c-3.2,2-7,0.2-7.3-3.6
		c-0.1-1.6,0-3.4,0.6-4.9c11.8-35.9,34.5-61.5,72-70.7c36.6-9,71.5-4.8,101.6,20.2c16.6,13.8,26.9,31.9,32.7,52.6
		c0.5,1.9-0.4,5.4-1.8,6.4c-1.4,0.9-5,0.1-6.4-1.2c-10.9-10.6-31.9-9.8-41,0c-3.5,3.7-6.7,2-10-0.9c-9.8-8.5-26-9.2-36.1-1.6
		c-1.5,1.1-2.8,3.4-2.8,5.2c-0.2,14.3-0.1,28.7-0.1,43c0,0.8,0.1,1.5,0.3,3.2c4.7-4.5,8.7-8.7,13.1-12.4
		c32.4-28.1,82.7-12.8,93.5,28.7c5.1,19.5,1.1,37.7-12.6,52.5c-28.4,30.7-57.4,60.8-86.2,91.1c-8.4,8.8-17.6,8.8-26,0
		c-29-30.4-58.1-60.7-86.6-91.5c-15.1-16.4-18-36.2-10.7-56.8c7.4-20.6,22.3-33.5,44.2-37.4c20-3.5,37.1,2.3,51.4,16.6
		c2.9,2.9,5.6,6,8.4,9C119.3,140.9,119.7,140.6,120.2,140.4z M228.9,175.4c-0.1-22.5-12-40.5-29.4-47.6
		c-17.8-7.3-38.3-3.1-52.1,10.6c-5.7,5.6-11.3,11.3-17.1,16.9c-4.4,4.3-6.1,4.3-10.4,0.1c-5.8-5.7-11.6-11.5-17.4-17.2
		c-18.2-17.9-48-18.5-65.8-1.1c-19.7,19.2-20.8,48-2.6,67.6c8.3,8.9,16.7,17.7,25.1,26.5c19.8,20.9,39.6,41.9,59.5,62.7
		c4.7,4.9,8,4.9,12.7,0.1c2.8-2.8,5.4-5.9,8.2-8.8c25.7-27.1,51.4-54.1,77-81.3C224.9,195.1,229.1,184.4,228.9,175.4z M178.3,80.2
		c14.6-5.8,16.5-7.1,36.6-3c-13.3-29.7-35.2-47.8-67-54.2C165,38.2,175.2,57,178.3,80.2z M103.4,22.6c-36.9,6.1-62,35.1-67.3,54.9
		c12.1-4.3,23.9-3.5,35.7,3C74.9,57.2,85.1,38.3,103.4,22.6z M119.9,24c-17.5,7.1-36.6,34.7-36.9,54.4c12.3-5.2,24.5-5,36.9,1.1
		C119.9,60.7,119.9,42.6,119.9,24z M130.5,23.9c0,18.7,0,36.9,0,55.6c12.5-6.2,24.5-6,36.7-1C165.6,57.9,149.1,32.8,130.5,23.9z"/>
	<path id="XMLID_74_" class="st0" d="M31.4,166.1c-0.6,14.7,2.6,24.1,10.1,31.7c1.3,1.3,4.2,1.9,6,1.5c1.3-0.3,2.8-3,2.7-4.6
		c-0.1-1.7-1.7-3.5-2.9-5c-4.6-5.9-6.5-12.4-6.2-19.9c0.7-13.3,13.6-25.4,26.3-25.4c3.4,0,6.5-1.2,6.3-5.5c-0.2-4.3-3.4-4.5-6.8-4.5
		C48.3,134.8,31.6,151.7,31.4,166.1z M65.5,212.9c0.2-4.5-4.1-9.7-7-9.1c-1.9,0.4-4.3,2.4-4.9,4.2c-1,3.1,3.8,8.4,7.1,7.9
		C62.7,215.6,64.4,213.7,65.5,212.9z"/>
	<path id="XMLID_65_" d="M31.4,166.1c0.2-14.5,16.9-31.4,35.5-31.7c3.5-0.1,6.6,0.1,6.8,4.5c0.2,4.2-2.9,5.5-6.3,5.5
		c-12.6,0-25.6,12.1-26.3,25.4c-0.4,7.5,1.5,14.1,6.2,19.9c1.2,1.5,2.8,3.3,2.9,5c0.1,1.6-1.4,4.3-2.7,4.6c-1.8,0.4-4.7-0.2-6-1.5
		C34.1,190.2,30.8,180.9,31.4,166.1z"/>
	<path id="XMLID_64_" d="M65.5,212.9c-1.1,0.7-2.8,2.6-4.8,3c-3.3,0.5-8.1-4.7-7.1-7.9c0.6-1.8,3-3.9,4.9-4.2
		C61.4,203.2,65.7,208.4,65.5,212.9z"/>
	<path id="XMLID_3_" class="st1" d="M151.1,180.9c0-1.8-1.4-3.2-3.2-3.2h-45.7c-1.8,0-3.2,1.4-3.2,3.2c0,1.8,1.4,3.2,3.2,3.2h13.1
		c7.8,0,14.5,5.5,16,13.1h-29.1c-1.8,0-3.2,1.4-3.2,3.2c0,1.8,1.4,3.2,3.2,3.2h29.1c-1.5,7.6-8.3,13.1-16,13.1h-13.1
		c-1.3,0-2.5,0.8-3,2c-0.5,1.2-0.2,2.6,0.8,3.5l32.7,30.9c1.3,1.2,3.3,1.2,4.6-0.1c1.2-1.3,1.2-3.3-0.1-4.6l-26.8-25.3h4.9
		c11.3,0,21-8.4,22.6-19.6h10c1.8,0,3.2-1.4,3.2-3.2c0-1.8-1.4-3.2-3.2-3.2h-10c-0.7-5-3.1-9.6-6.7-13.1h16.7
		C149.6,184.1,151.1,182.7,151.1,180.9z"/>
</g>
</svg>
