<?xml version="1.0" encoding="utf-8"?>
<!-- Generator: Adobe Illustrator 19.0.0, SVG Export Plug-In . SVG Version: 6.00 Build 0)  -->
<svg version="1.1" id="Layer_1" xmlns="http://www.w3.org/2000/svg" xmlns:xlink="http://www.w3.org/1999/xlink" x="0px" y="0px"
	 viewBox="0 0 295.9 267.6" style="enable-background:new 0 0 295.9 267.6;" xml:space="preserve">
<g id="XMLID_1_">
	<path id="XMLID_88_" d="M148.5,11.3c40.7,0,81.3,0.2,122-0.2c11.4-0.1,18.7,7,18.7,18.4c-0.1,70.8,0,141.6-0.1,212.5
		c0,12.3-6.3,18.4-18.5,18.4c-81.8,0-163.6,0-245.5,0c-11.9,0-18.3-6.1-18.3-18.1C6.8,171.2,6.8,100,6.9,28.8
		c0-11.4,6.3-17.5,17.7-17.5C65.9,11.3,107.2,11.3,148.5,11.3z M21.7,78.8c0,55.9,0,111.6,0,167.6c1.7,0,3,0,4.4,0
		c81.1,0,162.2,0,243.4,0.1c4.2,0,5.3-1.2,5.3-5.3c-0.1-52.6-0.1-105.3-0.1-157.9c0-1.4-0.2-2.9-0.3-4.5
		C189.9,78.8,105.9,78.8,21.7,78.8z M21.3,63.9c84.8,0,168.9,0,253,0c0-12.9,0-25.5,0-38.5c-2,0-3.6,0-5.3,0c-80.7,0-161.3,0-242,0
		c-0.8,0-1.9-0.3-2.5,0.1c-1.2,0.9-3.1,2.1-3.1,3.2C21.2,40.3,21.3,51.9,21.3,63.9z"/>
	<path id="XMLID_74_" d="M175.4,173.3c-15.8,0-31.6,0-47.4,0c-2.1,0-4.8,0.1-6.2-1.1c-1.9-1.6-4.1-4.4-4-6.6
		c0.1-2.2,2.5-4.6,4.5-6.2c1.2-1,3.5-0.8,5.3-0.8c32.1,0,64.2-0.1,96.4,0.1c2.8,0,6.2,0.9,8.1,2.7c1.5,1.4,2.1,5.4,1.1,7.1
		c-1.2,2.2-4.3,4.2-6.9,4.6c-4.5,0.7-9.3,0.2-13.9,0.2C200.1,173.3,187.8,173.3,175.4,173.3z"/>
	<path id="XMLID_73_" d="M175.7,216.9c-16.7,0-33.3,0-50,0c-3.4,0-6.7-0.7-7.5-4.3c-0.5-2.3-0.1-5.5,1.2-7.3
		c1.3-1.6,4.3-2.7,6.6-2.7c33.2-0.2,66.3-0.2,99.5-0.1c5.5,0,8.9,3.2,8.6,7.6c-0.2,4.2-3.4,6.7-8.9,6.7
		C208.7,216.9,192.2,216.9,175.7,216.9z"/>
	<path id="XMLID_72_" d="M176.3,114.9c15.5,0,30.9,0,46.4,0c1.8,0,4.1-0.4,5.4,0.5c2.3,1.5,5.3,3.7,5.5,5.9c0.2,2.2-2.2,5.1-4.1,7
		c-1.2,1.1-3.8,1-5.7,1c-32.1,0.1-64.2,0.1-96.3,0c-6.8,0-10.8-3.3-9.9-8.2c0.9-5.2,4.9-6.2,9.4-6.2
		C143.4,114.9,159.9,114.9,176.3,114.9z"/>
	<path id="XMLID_71_" d="M108.7,113.9c-1.7,2-2.3,3.2-3.4,3.8c-5.6,3.3-6.9,7.8-4.7,13.8c0.5,1.3-0.1,3-0.3,4.6
		c-1.5-0.3-3.4-0.1-4.5-0.9c-5-4.1-9.6-4.1-14.6,0c-1.1,0.9-3,0.7-4.5,1c-0.1-1.5-0.8-3.2-0.3-4.5c2.4-6.2,0.8-10.8-4.9-14.3
		c-1-0.6-1.4-2.4-2.1-3.6c1.2-0.6,2.4-1.3,3.7-1.9c0.6-0.3,1.3-0.4,2-0.3c5.9,0.8,8.7-2.4,10.2-7.6c0.4-1.5,2-2.7,3-4
		c1.1,1.3,2.8,2.4,3.2,3.9c1.6,5.4,4.5,8.5,10.6,8C104,111.9,105.9,113,108.7,113.9z"/>
	<path id="XMLID_70_" d="M88.6,187c1.4,2.1,2.6,3.1,2.8,4.3c1.3,6.7,5.5,9.2,11.9,9c1.3,0,2.6,1,3.9,1.6c-0.7,1.2-1.1,2.9-2.1,3.5
		c-5.8,3.5-6.9,8.3-4.7,14.4c0.4,1.2-0.2,2.8-0.3,4.2c-1.5-0.3-3.5-0.1-4.5-0.9c-5-4.1-9.6-4.2-14.6,0c-1.1,0.9-3,0.7-4.5,1
		c-0.1-1.5-0.6-3.3-0.1-4.5c2.4-5.6,1.1-9.7-4-13.1c-1.3-0.9-1.9-2.8-2.8-4.3c1.6-0.6,3.2-1.9,4.7-1.8c6.4,0.6,9.2-3.2,11.1-8.4
		C85.9,190.6,87.1,189.3,88.6,187z"/>
	<path id="XMLID_69_" d="M76.4,178.5c0.1-0.9,0.1-1.1,0.2-1.2c3.3-7,1.2-12.3-5.2-16.3c-0.7-0.5-1.4-2.1-1.2-2.9
		c0.2-0.8,1.6-1.3,2.6-1.7c0.6-0.2,1.3-0.2,2-0.2c5.6,0.1,9.2-2.3,10.6-8c0.4-1.5,2-2.6,3.1-3.9c1.1,1.3,2.8,2.4,3.1,3.9
		c1.4,6.4,5.7,8.2,11.5,8.1c1.3,0,2.6,0.9,3.9,1.4c-0.6,1.2-0.9,2.9-1.9,3.5c-5.9,3.6-7.1,8.5-4.8,14.8c0.4,1.1-0.3,2.7-0.6,4.1
		c-1.2-0.2-2.9,0-3.6-0.7c-5.2-4.8-10.1-3.4-15,0.4c-0.9,0.7-2.5,1-3.5,0.7C77,180.4,76.6,178.9,76.4,178.5z"/>
	<path id="XMLID_68_" d="M70.1,44.9c0,3.7-3.7,7.3-7.4,7.3c-4,0-7.2-3.3-7.3-7.3c-0.1-4.1,3.4-7.5,7.5-7.4
		C66.9,37.6,70.2,41,70.1,44.9z"/>
	<path id="XMLID_67_" d="M41.5,52.1c-4-0.1-7.1-3.4-7.1-7.5c0-4,3.3-7.2,7.4-7.2c4.1,0,7.2,3.3,7.1,7.4
		C48.8,48.8,45.3,52.2,41.5,52.1z"/>
	<path id="XMLID_66_" d="M83.6,52.2c-3.9,0.1-7.2-3.3-7.3-7.3c0-4.2,3-7.4,7.1-7.4c4,0,7.2,3.1,7.3,7.2
		C90.8,48.6,87.5,52.1,83.6,52.2z"/>
</g>
</svg>
