<?xml version="1.0" encoding="utf-8"?>
<!-- Generator: Adobe Illustrator 19.0.0, SVG Export Plug-In . SVG Version: 6.00 Build 0)  -->
<svg version="1.1" id="Layer_1" xmlns="http://www.w3.org/2000/svg" xmlns:xlink="http://www.w3.org/1999/xlink" x="0px" y="0px"
	 viewBox="0 0 297 298" style="enable-background:new 0 0 297 298;" xml:space="preserve">
<style type="text/css">
	.st0{fill:#010101;}
</style>
<g id="XMLID_1_">
	<path id="XMLID_152_" d="M101,182.4c-38.8-39.2-27.4-90.3-3.3-115.8c25.5-27,69.1-33.1,101.2-13.4c12.7,7.9,22.7,18.3,29.7,31.6
		c6.9,13.1,9.8,27,9.2,41.8c-0.6,14.9-5.5,28.5-13.7,41.7c11.6,0,22.4,0,33.2,0c8.2,0,16.3,0.1,24.5,0c4.6-0.1,6.7,2,6.7,6.6
		c0,36.3,0,72.6,0,109c0,4.6-2,6.6-6.7,6.6c-56.8-0.1-113.6-0.1-170.4,0c-4.5,0-6.4-2-6.3-6.4c0.1-2.5,0-4.9,0-7.8c-2.4,0-4.2,0-6,0
		c-27.2,0-54.3,0-81.5,0c-6.6,0-7.9-1.2-7.9-7.8c0-26,0-52,0-78c0-6.9,1.3-8.2,8.1-8.2c25.8,0,51.6,0,77.5,0
		C96.9,182.4,98.7,182.4,101,182.4z M137.4,199.9c0,16.4,0,32,0,47.6c0,3.6,2.5,3.8,5.2,3.7c9,0,18,0,27,0c6.2,0,6.8-0.6,6.8-6.9
		c0-14.2,0.1-28.3,0-42.5c0-6,2.6-10.1,8-12.6c1.7-0.8,3.3-1.6,4.9-2.4c31.5-15.9,46.9-52.8,35.9-86.3c-11-33.6-44.9-54.5-79.7-48.9
		c-51.7,8.3-77.9,67.7-48.5,111c12.1,17.7,27.7,30.5,51.4,28c6.3-0.7,12.7-0.1,19-0.1c3.1,0,5.8,1.2,5.9,4.7
		c0.1,3.6-2.6,4.7-5.8,4.6c-1.5,0-3,0-4.5,0C154.8,199.9,146.4,199.9,137.4,199.9z M114.6,239.1c0,14.1,0,27.9,0,41.8
		c54.8,0,109.3,0,164,0c0-14.1,0-27.8,0-41.6c-31.2,0-62,0-93.3,0c0.8,10,0.6,19.2-11.9,21.4c0,1.6,0.1,2.9,0,4.2
		c-0.4,7-4.7,11.3-11.8,11.5c-3.5,0.1-7,0.1-10.5,0c-6.4-0.3-10.4-4.2-11.1-10.6c-0.2-1.6-0.2-3.3-0.3-5.3
		c-13-1.9-11.9-12.1-11.9-21.5C123.2,239.1,119.2,239.1,114.6,239.1z M185.5,210c31.5,0,62.3,0,93.5,0c0-9.5-0.2-18.7,0.1-27.8
		c0.1-3.7-1.1-4.8-4.8-4.8c-18,0.2-35.9,0-53.9,0.2c-2,0-4.2,1.3-6,2.5c-7.9,5.4-15.6,11.3-23.7,16.2c-3.6,2.2-5.7,4.1-5.1,8.4
		C185.7,206.4,185.5,208.1,185.5,210z M19.3,266.9c28.2,0,56.1,0,83.9,0c0-3.3,0-6.2,0-9.4c-2.2,0-4,0-5.8,0c-22.2,0-44.3,0-66.5,0
		c-6,0-6.9-1-6.9-7c0-14.2,0-28.3,0-42.5c0-5.6,1.1-6.6,6.8-6.6c22.3,0,44.6,0,67,0c1.8,0,3.6,0,5.5,0c0-3.4,0-6.3,0-9.2
		c-28.1,0-55.9,0-83.9,0C19.3,217.3,19.3,242,19.3,266.9z M66.3,210.7c9.6,3.6,15,9.6,15,18.9c0,9.1-5.5,15-14.5,18.6
		c12.8,0,24.6,0,36.4,0c0-12.6,0-25,0-37.5C91.1,210.7,79.3,210.7,66.3,210.7z M278.6,229.3c0-3.4,0-6.3,0-9.4c-31.2,0-62,0-92.9,0
		c0,3.3,0,6.2,0,9.4C216.8,229.3,247.5,229.3,278.6,229.3z M58.6,210.9c-9,0-16.9,0-24.9,0c0,12.6,0,24.8,0,37.3
		c8.2,0,16.2,0,24.2,0c-8.5-3.3-13.6-9.2-13.8-18.3C43.8,220.5,49,214.5,58.6,210.9z M53.4,229.4c0,5.5,3.8,9.5,9.2,9.5
		c5.3,0,9.4-4.2,9.3-9.5c-0.1-5.2-3.9-9-9.1-9.1C57.3,220.2,53.4,223.9,53.4,229.4z M127.6,210.2c0.8-13.7,1.6-10.5-12.9-17.3
		c0,5.7,0,11.4,0,17.3C119.1,210.2,123.2,210.2,127.6,210.2z M114.7,219.6c0,3.5,0,6.6,0,9.6c4.6,0,8.8,0,13.3,0
		c0-2.5,0.3-4.8-0.1-6.8c-0.2-1-1.6-2.5-2.6-2.6C121.9,219.4,118.4,219.6,114.7,219.6z M148.7,260.7c0.9,2.5,1.3,6,2.3,6.2
		c3.8,0.6,7.9,0.6,11.7-0.1c1-0.2,1.4-3.7,2.3-6.1C159.1,260.7,154.4,260.7,148.7,260.7z"/>
	<path id="XMLID_151_" d="M255.6,116.9c1.5,0,3.3-0.5,4.4,0.1c1.8,1,4.2,2.7,4.3,4.1c0,1.6-2.1,4.1-3.7,4.7
		c-2.7,0.8-5.9,0.6-8.9,0.4c-3-0.2-5.6-1.5-5.3-5.2c0.3-3.5,2.8-4.1,5.7-4.1C253.3,116.9,254.4,116.9,255.6,116.9
		C255.6,116.9,255.6,116.9,255.6,116.9z"/>
	<path id="XMLID_150_" d="M161.4,23.4c-0.2,3.1,1.2,8.2-4.4,8.3c-6.1,0.1-4.6-5.2-4.9-9c-0.1-1.5-0.5-3.3,0.2-4.4
		c1.1-1.9,3-3.2,4.6-4.8c1.5,1.6,3.4,3.1,4.5,4.9C161.9,19.5,161.4,21.3,161.4,23.4z"/>
	<path id="XMLID_149_" d="M58.1,116.9c0.5,0,1,0,1.5,0c3.6-0.1,7.8-0.1,7.6,4.7c-0.2,4.5-4.3,4.8-7.9,4.7c-2-0.1-4.3,0.5-5.9-0.3
		c-1.9-1-3.2-3.1-4.8-4.7c1.7-1.5,3.2-3.2,5.1-4.3C54.8,116.4,56.6,116.9,58.1,116.9C58.1,116.9,58.1,116.9,58.1,116.9z"/>
	<path id="XMLID_148_" d="M115.1,39.7c-1.5,1.8-2.4,3.9-3.7,4.2c-1.6,0.4-4.2-0.2-5.2-1.4c-2.2-2.6-4-5.8-5.2-9
		c-0.5-1.4,0.3-4.1,1.4-5.2c0.9-0.9,4.2-1.2,4.8-0.4C110.1,31.5,112.4,35.5,115.1,39.7z"/>
	<path id="XMLID_147_" d="M213.7,32.1c-2.5,4.2-4.4,7.9-7,11.1c-0.8,1-4.2,1.2-5.2,0.4c-1.3-1.1-2.2-3.9-1.7-5.5
		c1.1-3.2,3-6.3,5.2-9c1-1.2,3.7-1.8,5.2-1.3C211.6,28.3,212.4,30.5,213.7,32.1z"/>
	<path id="XMLID_146_" d="M67.3,64.4c4.1,2.6,8.1,4.8,11.6,7.7c0.8,0.7,0.6,3.6-0.2,4.9c-0.6,1.1-3.2,2.1-4.2,1.6
		c-3.8-1.8-7.6-4-11-6.5c-0.8-0.6-0.9-3.2-0.4-4.4C63.7,66.5,65.4,65.8,67.3,64.4z"/>
	<path id="XMLID_145_" d="M250.9,70.5c-0.5,0.7-1,2.2-2.1,3c-2.6,1.8-5.2,3.8-8.2,4.6c-1.8,0.5-4.3-1-6.4-1.7c0.6-2,0.6-4.6,1.9-5.9
		c2.2-2.1,5.2-3.6,8.1-4.8C247.6,64.2,250.9,66.3,250.9,70.5z"/>
	<path id="XMLID_144_" d="M74.7,163.2c1.8,1.2,3.7,1.8,4.2,3c0.6,1.4,0.6,4.3-0.3,5c-3.4,2.5-7.2,4.6-11.1,6.2c-1,0.4-3.5-1-4.3-2.3
		c-0.7-1-0.5-3.8,0.3-4.4C67,168,70.8,165.8,74.7,163.2z"/>
	<path id="XMLID_127_" d="M173.4,208.9c-0.9,0.8-2.3,2.6-4.1,3.3c-7.5,2.7-15,5.3-22.6,7.3c-1.7,0.5-5-0.8-5.9-2.3
		c-1.6-2.6-0.2-5.1,2.9-6.2c7.7-2.6,15.3-5.3,23.1-7.6C170.4,202.3,173.6,204.5,173.4,208.9z"/>
	<path id="XMLID_126_" d="M169,222.6c1.3,1.2,3.7,2.4,4,3.9c0.3,1.6-1.1,4.6-2.5,5.1c-8.2,3.2-16.5,6-24.9,8.4
		c-1.3,0.4-4.4-1.3-4.9-2.7c-0.6-1.4,0.5-4.9,1.7-5.4C150.9,228.6,159.6,225.9,169,222.6z"/>
	<path id="XMLID_122_" d="M236.7,272c-4.1,0.6-8.3,1.9-12.3,1.5c-5.6-0.5-9.3-4.5-10.6-9.9c-1.3-5.5-0.1-10.7,4.6-14.4
		c4.6-3.6,9.6-3.9,15-1.7c1.6,0.6,3.8,1.2,5.2,0.6c7.3-3.3,14.1-2.2,18.5,3.4c4.1,5.3,3.8,12.9-0.7,17.9c-4.9,5.4-11.4,6.1-18.5,2
		c-0.4-0.2-0.9-0.4-1.3-0.6C236.6,271.1,236.6,271.6,236.7,272z M228,254.7c-0.7,0-1.4,0.1-2.1,0.1c-1.1,1.9-3.3,3.9-3,5.5
		c0.3,1.7,3,3.8,4.8,4c1.3,0.1,3.9-2.7,3.9-4.3C231.4,258.2,229.2,256.4,228,254.7z M244.8,265.3c0.7,0,1.5,0,2.2,0
		c1.2-1.8,3.5-3.8,3.2-5.4c-0.3-1.7-2.8-3.9-4.6-4.2c-1.2-0.2-3.9,2.6-4,4.2C241.6,261.6,243.7,263.5,244.8,265.3z"/>
	<path id="XMLID_3_" class="st0" d="M184.6,90.1c0-1.8-1.4-3.2-3.2-3.2h-45.7c-1.8,0-3.2,1.4-3.2,3.2c0,1.8,1.4,3.2,3.2,3.2h13.1
		c7.8,0,14.5,5.5,16,13.1h-29.1c-1.8,0-3.2,1.4-3.2,3.2c0,1.8,1.4,3.2,3.2,3.2h29.1c-1.5,7.6-8.3,13.1-16,13.1h-13.1
		c-1.3,0-2.5,0.8-3,2c-0.5,1.2-0.2,2.6,0.8,3.5l32.7,30.9c1.3,1.2,3.3,1.2,4.6-0.1c1.2-1.3,1.2-3.3-0.1-4.6l-26.8-25.3h4.9
		c11.3,0,21-8.4,22.6-19.6h10c1.8,0,3.2-1.4,3.2-3.2c0-1.8-1.4-3.2-3.2-3.2h-10c-0.7-5-3.1-9.6-6.7-13.1h16.7
		C183.2,93.3,184.6,91.9,184.6,90.1z"/>
</g>
</svg>
