<?xml version="1.0" standalone="no"?>
<!DOCTYPE svg PUBLIC "-//W3C//DTD SVG 20010904//EN"
 "http://www.w3.org/TR/2001/REC-SVG-20010904/DTD/svg10.dtd">
<svg version="1.0" xmlns="http://www.w3.org/2000/svg"
 width="1036.000000pt" height="1036.000000pt" viewBox="0 0 1036.000000 1036.000000"
 preserveAspectRatio="xMidYMid meet">
<metadata>
Created by potrace 1.11, written by Peter Selinger 2001-2013
</metadata>
<g transform="translate(0.000000,1036.000000) scale(0.100000,-0.100000)"
fill="#000000" stroke="none">
<path d="M10326 8483 c-2 -2 -84 -26 -182 -53 -99 -27 -208 -59 -244 -70 -36
-12 -73 -23 -82 -25 -22 -5 -248 -74 -268 -82 -8 -4 -17 -7 -20 -8 -3 0 -23
-7 -45 -14 -58 -18 -65 -20 -70 -21 -2 -1 -49 -17 -102 -36 -54 -20 -125 -44
-158 -55 -33 -11 -69 -24 -80 -29 -38 -16 -90 -35 -100 -36 -5 -1 -50 -18 -98
-38 -48 -20 -95 -36 -103 -36 -8 0 -14 -4 -14 -8 0 -5 -6 -9 -12 -9 -7 -1 -80
-29 -163 -63 -153 -63 -191 -80 -303 -131 -35 -16 -65 -29 -67 -29 -13 0 -490
-234 -600 -295 -130 -71 -155 -83 -158 -77 -4 7 -4 13 6 97 4 28 9 79 12 115
3 36 8 81 11 101 2 20 7 56 9 80 8 79 15 134 19 154 2 11 7 49 11 85 4 36 8
67 10 70 1 3 6 32 10 65 3 32 9 63 11 67 17 27 -80 -15 -346 -150 -124 -62
-238 -122 -255 -131 -16 -10 -55 -31 -85 -48 -30 -16 -72 -40 -92 -52 -21 -11
-53 -29 -70 -40 -18 -10 -86 -50 -151 -90 -65 -39 -120 -71 -123 -71 -3 0 -10
-5 -17 -10 -23 -20 -138 -90 -147 -90 -4 0 -10 -4 -12 -8 -1 -4 -46 -34 -98
-67 -52 -32 -116 -73 -141 -92 -26 -18 -51 -33 -57 -33 -6 0 -12 -4 -14 -8 -1
-4 -37 -30 -78 -57 -41 -27 -122 -82 -180 -122 -58 -40 -113 -79 -124 -85 -10
-7 -37 -26 -60 -43 -23 -16 -49 -34 -58 -40 -9 -5 -81 -57 -159 -115 -78 -58
-148 -108 -155 -113 -10 -6 -12 41 -8 235 3 134 6 282 8 331 1 48 1 87 -2 87
-5 0 -157 -82 -194 -105 -33 -20 -124 -76 -142 -88 -70 -44 -466 -312 -545
-368 -53 -38 -104 -74 -114 -81 -11 -7 -42 -30 -70 -51 -29 -20 -61 -44 -72
-51 -28 -21 -168 -124 -180 -133 -6 -4 -64 -48 -130 -98 -66 -49 -125 -94
-132 -100 -18 -15 -33 -26 -78 -60 -63 -46 -389 -306 -400 -319 -5 -6 -32 -29
-60 -51 -27 -21 -52 -42 -55 -46 -3 -4 -4 -229 -4 -501 1 -401 4 -492 15 -490
14 3 112 82 117 95 2 4 10 7 18 7 8 0 14 4 14 9 0 5 24 27 53 49 28 22 63 49
77 61 14 11 115 90 225 175 110 86 205 159 210 164 6 4 51 38 100 75 50 37 95
70 100 75 6 4 50 37 98 72 49 36 98 73 109 83 30 24 35 22 32 -15 -11 -124
-14 -156 -18 -183 -7 -41 -16 -143 -21 -240 -2 -44 -5 -80 -5 -80 -2 0 -8 -97
-14 -233 l-6 -133 73 58 c39 32 74 60 77 63 3 3 30 25 60 50 30 25 57 47 60
50 17 20 547 418 655 492 33 23 62 45 63 50 2 4 10 8 18 8 8 0 14 5 14 10 0 6
6 10 14 10 8 0 16 4 18 8 2 4 32 28 68 52 36 25 67 48 68 53 2 4 7 7 12 7 4 0
67 41 140 90 73 50 136 90 141 90 5 0 9 5 9 10 0 6 7 10 15 10 8 0 15 5 15 11
0 6 6 9 13 6 6 -2 11 -9 10 -14 -3 -15 -12 -99 -18 -168 -2 -33 -7 -87 -10
-120 -5 -59 -12 -165 -20 -295 -2 -36 -6 -110 -9 -165 -20 -358 -19 -376 16
-342 25 24 214 162 303 222 50 33 92 63 93 68 2 4 7 7 11 7 5 0 48 26 97 58
49 32 134 85 189 118 55 32 102 62 103 66 2 5 8 8 13 8 5 0 82 41 171 91 191
106 613 319 634 319 8 0 14 5 14 10 0 6 4 10 10 10 5 0 40 14 77 31 123 57
222 101 233 104 3 1 21 8 40 17 45 19 249 107 275 117 11 5 34 14 50 21 213
86 454 181 470 185 6 1 21 7 35 12 32 13 172 64 185 67 6 2 21 8 35 13 65 27
834 281 873 288 9 2 22 7 27 10 5 3 18 8 28 10 10 2 67 17 128 35 202 58 239
69 279 79 22 6 42 10 45 10 3 0 30 9 60 19 30 11 57 19 60 19 3 -1 26 5 53 12
43 12 47 16 48 45 0 17 2 45 3 61 2 17 6 71 10 120 3 50 9 106 11 125 2 19 7
69 10 110 3 41 8 91 10 110 1 19 6 73 10 120 3 47 8 96 10 110 3 24 8 70 20
200 5 53 9 85 20 180 3 25 7 65 9 90 6 59 16 139 22 170 3 14 7 43 10 65 2 22
7 54 9 71 3 22 0 31 -10 31 -8 0 -17 -2 -19 -4z"/>
<path d="M2896 4503 c-4 -5 -69 -44 -144 -88 l-137 -80 -2 -140 c0 -77 -2
-151 -2 -164 -1 -21 -4 -23 -38 -16 -60 11 -203 13 -263 4 -96 -14 -113 -19
-189 -56 -155 -74 -260 -221 -288 -405 -10 -66 -7 -191 7 -250 14 -60 57 -163
80 -192 68 -85 134 -135 224 -170 111 -44 160 -51 341 -49 188 2 263 13 390
58 l40 15 0 764 c0 420 -3 767 -6 770 -3 3 -9 3 -13 -1z m-328 -629 c37 -6 42
-10 43 -33 0 -14 1 -190 1 -390 1 -300 -2 -365 -13 -372 -28 -17 -122 -31
-179 -25 -145 13 -252 110 -275 249 -3 18 -8 40 -11 51 -11 33 -7 190 6 251
16 81 53 152 103 198 79 73 181 96 325 71z"/>
<path d="M8710 4362 c-80 -37 -148 -71 -152 -77 -4 -5 -8 -7 -8 -3 0 4 -14 0
-32 -10 -32 -18 -55 -67 -37 -78 5 -3 6 -10 3 -16 -8 -13 -8 -133 0 -147 4 -5
2 -12 -3 -16 -6 -3 -7 -15 -2 -28 5 -12 5 -32 0 -44 -5 -13 -4 -25 1 -28 6 -3
6 -15 0 -29 -5 -13 -6 -27 -3 -30 8 -8 8 -85 0 -92 -3 -3 -1 -18 3 -34 4 -16
6 -31 3 -34 -8 -8 -9 -126 -1 -126 4 0 3 -13 -2 -30 -5 -16 -5 -30 0 -30 4 0
4 -16 0 -35 -4 -19 -4 -35 0 -35 5 0 5 -12 1 -27 -5 -16 -5 -37 -1 -48 4 -11
6 -23 4 -26 -6 -11 -6 -74 0 -144 14 -159 107 -255 281 -289 89 -17 221 -12
285 12 23 9 24 13 25 105 l0 96 -56 -6 c-40 -4 -66 -1 -90 11 -59 28 -62 46
-61 360 0 154 1 291 1 303 1 21 6 22 103 25 l103 3 0 90 c1 50 -1 95 -3 102
-2 8 -33 11 -95 11 -51 0 -96 0 -102 1 -6 1 -9 76 -9 206 1 113 -1 205 -5 205
-3 0 -71 -31 -151 -68z"/>
<path d="M5 4350 c-2 -3 -4 -329 -4 -723 l0 -718 147 3 146 3 0 708 c1 389 -1
713 -4 720 -4 9 -44 12 -143 12 -77 0 -140 -2 -142 -5z"/>
<path d="M4971 4350 c-5 -4 -8 -1401 -2 -1432 0 -5 91 -8 201 -8 l200 0 0 310
c0 241 3 310 13 311 6 0 98 1 202 2 l190 2 0 105 0 105 -202 3 -203 2 0 190 0
190 265 0 265 0 1 30 c1 39 1 155 0 178 -1 16 -30 17 -462 17 -253 0 -464 -2
-468 -5z"/>
<path d="M7058 4055 c-1 -2 -32 -6 -68 -9 -83 -7 -116 -13 -180 -31 -3 -1 -21
-5 -40 -9 -19 -5 -39 -11 -45 -15 -5 -3 -12 -6 -15 -6 -3 -1 -22 -7 -42 -14
-33 -11 -38 -17 -39 -44 0 -40 0 -952 0 -990 l1 -27 192 2 193 3 0 447 c0 245
4 450 8 455 20 19 241 6 305 -18 31 -12 39 -5 47 41 3 19 8 43 11 52 3 9 7 27
9 40 18 89 18 87 -1 86 -11 0 -39 5 -64 11 -25 6 -90 14 -145 17 -55 3 -105 7
-112 9 -6 2 -13 2 -15 0z"/>
<path d="M948 4035 c-2 -1 -32 -5 -68 -9 -119 -12 -138 -15 -225 -39 -79 -22
-93 -32 -93 -69 0 -18 -1 -37 -2 -43 -1 -5 -1 -14 0 -20 2 -14 3 -447 0 -460
-1 -5 -1 -14 0 -20 1 -5 2 -112 2 -237 l0 -228 138 0 139 0 1 73 c0 39 0 81 1
92 0 15 0 524 0 640 0 11 -1 34 -2 50 -3 58 1 82 14 83 6 0 32 6 57 13 25 6
88 13 140 14 91 2 126 -4 201 -37 34 -15 81 -82 85 -121 1 -18 3 -207 3 -420
l1 -388 138 3 137 3 0 430 c-1 416 -2 432 -22 476 -12 26 -40 65 -62 87 -59
58 -122 86 -271 118 -25 5 -307 13 -312 9z"/>
<path d="M4097 4034 c-1 -1 -29 -5 -62 -9 -32 -3 -62 -8 -65 -10 -6 -4 -18 -7
-85 -20 -48 -10 -125 -37 -125 -44 1 -3 15 -36 33 -73 l32 -66 78 24 c102 30
151 37 272 37 172 0 251 -53 256 -173 2 -65 1 -67 -38 -69 -21 -1 -51 -3 -68
-5 -16 -2 -55 -7 -85 -10 -30 -4 -62 -9 -70 -11 -8 -2 -31 -7 -50 -10 -85 -14
-180 -44 -259 -83 -76 -37 -163 -125 -180 -182 -67 -223 51 -370 338 -424 71
-13 367 -15 416 -3 11 3 41 8 66 11 64 9 189 42 201 54 9 9 13 692 4 768 -4
40 -47 131 -78 165 -51 58 -147 104 -258 125 -33 6 -267 13 -273 8z m333 -748
c1 -245 3 -239 -74 -246 -22 -2 -84 -4 -136 -4 -170 1 -255 61 -267 188 -5 51
16 117 49 156 45 53 150 97 283 116 22 4 60 10 85 13 25 4 48 5 52 1 4 -3 8
-104 8 -224z"/>
<path d="M7725 4020 c-129 -31 -216 -93 -271 -193 -25 -45 -28 -62 -28 -132 0
-70 4 -85 28 -125 16 -25 38 -53 48 -64 37 -35 124 -82 218 -116 123 -46 170
-88 170 -151 0 -52 -20 -81 -74 -107 -60 -29 -208 -17 -287 24 -16 8 -34 12
-39 9 -10 -6 -103 -187 -97 -190 1 0 9 -6 18 -12 13 -11 90 -35 154 -48 90
-20 272 -27 343 -13 26 4 56 10 67 12 32 6 117 41 151 62 100 62 152 142 161
244 7 81 -7 130 -54 187 -45 56 -99 92 -208 137 -183 77 -213 100 -220 165 -4
46 18 82 65 106 41 21 144 18 210 -6 30 -11 62 -22 70 -25 11 -3 27 19 55 77
22 44 41 84 43 89 4 12 -85 50 -148 64 -109 25 -287 27 -375 6z"/>
<path d="M3189 4011 c-1 -3 -2 -252 -3 -553 l-1 -548 137 0 138 0 0 83 c1 132
1 865 0 948 l0 77 -135 -1 c-74 0 -136 -3 -136 -6z"/>
<path d="M5976 4011 c-2 -3 -4 -252 -4 -553 l-1 -548 195 0 194 0 0 40 c1 22
1 258 1 525 0 267 0 498 -1 513 l0 29 -190 0 c-105 1 -192 -2 -194 -6z"/>
<path d="M4130 2484 c-90 -27 -147 -91 -143 -161 0 -7 1 -25 2 -40 1 -25 72
-105 89 -101 4 1 32 -6 62 -16 30 -9 71 -19 90 -22 125 -18 176 -77 139 -158
-26 -55 -164 -75 -247 -35 -33 16 -49 32 -62 62 -10 23 -16 45 -14 49 5 8 2 9
-43 11 -22 1 -29 -4 -31 -21 -9 -58 38 -126 113 -165 57 -29 201 -30 265 -2
76 33 112 81 113 147 1 101 -54 148 -226 188 -141 33 -166 50 -167 106 0 64
64 105 153 98 65 -6 104 -31 124 -80 17 -41 20 -44 56 -42 20 1 37 4 37 7 0
23 -25 89 -42 112 -42 57 -180 89 -268 63z"/>
<path d="M8040 2485 c-68 -14 -107 -34 -148 -76 -30 -31 -61 -84 -67 -118 -2
-9 -4 -16 -5 -16 -14 0 -14 -152 0 -205 19 -70 81 -160 111 -160 5 0 9 -4 9
-9 0 -18 96 -39 171 -37 63 2 85 8 125 31 27 16 55 36 62 44 20 24 54 100 59
131 4 26 1 28 -35 32 -39 3 -39 3 -51 -42 -21 -82 -86 -130 -178 -130 -129 0
-211 110 -201 271 7 113 62 193 148 217 49 13 116 6 153 -16 28 -16 70 -65 79
-93 2 -6 20 -12 41 -14 42 -4 47 9 23 66 -40 96 -171 150 -296 124z"/>
<path d="M23 2483 l-23 -4 0 -303 0 -303 208 1 207 1 -3 30 c-2 17 -6 32 -8
34 -2 2 -74 4 -161 5 l-158 1 -1 259 c0 246 -1 260 -20 271 -10 6 -29 10 -41
8z"/>
<path d="M1128 2485 c-2 -3 -25 -5 -51 -6 l-47 -2 0 -302 0 -302 34 1 c19 1
38 5 42 9 4 4 7 66 6 137 l-3 130 144 0 144 0 -1 33 c-1 30 -3 32 -37 33 -20
1 -41 4 -48 8 -6 4 -11 4 -11 -1 0 -7 -47 -8 -167 -4 -20 1 -21 5 -21 96 l1
95 161 2 161 3 0 32 1 32 -143 0 c-79 0 -147 2 -152 5 -4 3 -10 3 -13 1z"/>
<path d="M1846 2482 c-3 -3 -44 -4 -90 -4 -58 1 -85 -2 -88 -11 -3 -10 -3
-571 1 -588 0 -3 97 -5 213 -5 l213 1 2 27 c1 15 -3 30 -9 34 -5 3 -84 6 -174
6 -155 -1 -164 0 -165 19 0 10 0 48 0 84 0 36 0 74 0 85 1 19 8 20 161 20
l160 0 0 35 0 34 -93 -1 c-51 -1 -99 2 -105 6 -7 4 -12 4 -12 -1 0 -4 -24 -7
-52 -7 l-53 2 -3 96 -3 96 98 1 c54 0 131 1 172 2 l74 2 2 32 3 32 -59 -1
c-32 -1 -61 1 -65 4 -3 3 -17 3 -32 -1 -15 -4 -41 -4 -59 0 -18 3 -34 4 -37 1z"/>
<path d="M5212 2481 c-7 -4 -23 -6 -35 -4 l-22 4 0 -223 c-1 -205 -3 -227 -21
-259 -53 -92 -223 -95 -287 -5 -21 30 -22 41 -24 256 l-2 225 -46 3 c-43 3
-46 2 -36 -16 6 -11 8 -21 6 -24 -10 -10 -6 -394 4 -427 31 -102 105 -146 245
-146 135 0 202 41 234 145 8 26 11 453 4 466 -4 8 -13 10 -20 5z"/>
<path d="M5697 2484 c-3 -4 -38 -6 -76 -5 l-71 1 -1 -38 c-1 -47 -1 -531 0
-554 1 -13 9 -17 39 -15 l37 2 3 128 3 127 42 1 c58 1 170 -2 188 -4 44 -8 66
-42 74 -119 15 -136 15 -136 71 -136 35 0 37 6 19 65 -3 7 -7 43 -11 80 -7 80
-24 117 -61 136 l-27 14 24 13 c55 29 78 74 75 145 -4 110 -67 153 -227 153
-42 0 -81 3 -86 6 -5 3 -12 3 -15 0z m203 -89 c61 -31 59 -143 -2 -176 -12 -6
-40 -13 -62 -15 -23 -1 -41 -3 -41 -4 0 -1 -15 -2 -33 -3 -17 -1 -32 0 -32 3
0 7 -59 5 -66 -3 -3 -3 -12 -3 -20 0 -11 4 -14 29 -14 109 l0 104 120 0 c88 0
129 -4 150 -15z"/>
<path d="M6497 2481 c-24 -5 -33 -16 -53 -66 -13 -33 -28 -69 -33 -80 -5 -11
-42 -103 -81 -205 -40 -102 -79 -198 -86 -214 -8 -16 -14 -32 -14 -36 0 -8 77
-7 83 1 2 2 17 38 32 79 15 41 32 80 36 85 5 7 58 11 136 10 l127 -1 24 -64
c46 -125 41 -119 89 -117 24 1 43 2 43 4 0 4 -31 86 -45 118 -13 28 -45 111
-57 145 -3 8 -5 18 -4 21 0 3 -4 12 -10 20 -6 8 -35 76 -64 151 -57 145 -69
159 -123 149z m65 -201 c22 -58 42 -116 44 -131 l5 -25 -95 1 c-52 0 -97 3
-101 6 -3 4 2 24 11 45 23 54 29 69 56 147 12 37 27 66 31 64 5 -1 27 -50 49
-107z"/>
<path d="M8663 2479 c-21 -8 -29 -27 -23 -54 5 -25 2 -103 -4 -113 -4 -7 -4
-12 1 -12 4 0 8 -29 8 -65 0 -36 -4 -65 -8 -65 -5 0 -5 -5 -1 -11 10 -16 11
-220 1 -226 -4 -2 -4 -10 0 -16 4 -7 8 -19 8 -27 0 -13 31 -15 213 -16 116 0
212 2 213 5 5 38 4 53 -4 58 -5 3 -83 5 -173 5 -121 -1 -164 2 -165 11 -1 7
-2 54 -3 105 l-2 92 163 0 162 0 -1 34 -1 35 -159 -2 c-87 -1 -159 0 -159 3
-1 3 -2 47 -3 98 l-2 92 173 0 173 0 0 35 0 35 -117 0 c-145 1 -137 1 -199 -1
-27 -2 -54 0 -60 3 -5 3 -19 2 -31 -3z"/>
<path d="M639 2477 c-1 -1 -2 -136 -3 -299 -2 -324 -5 -309 54 -305 l25 2 1
301 1 301 -39 1 c-21 1 -39 1 -39 -1z"/>
<path d="M2796 2187 c1 -160 2 -297 3 -303 1 -7 18 -11 40 -11 l40 1 1 125 c1
69 1 133 1 141 -2 38 1 104 5 111 2 4 1 10 -4 13 -4 3 -5 30 -2 61 3 30 4 58
1 61 -3 2 -4 24 -2 48 l2 43 -43 1 -43 2 1 -293z"/>
<path d="M3195 2178 l0 -303 37 -1 c26 0 38 4 40 15 2 9 3 116 3 239 -1 122 1
222 5 222 3 0 10 -9 15 -19 6 -10 76 -118 158 -239 l147 -220 45 1 45 1 0 303
0 303 -40 -2 -40 -1 1 -191 c0 -105 0 -215 -1 -244 l0 -53 -162 244 -162 244
-46 2 -45 1 0 -302z"/>
<path d="M7030 2177 l0 -304 40 0 40 0 0 235 c-1 129 1 236 3 238 2 2 75 -103
163 -233 l159 -238 45 0 46 -1 0 303 0 303 -32 0 c-17 0 -36 -6 -41 -12 -5 -7
-8 -113 -7 -236 0 -122 -2 -225 -6 -227 -4 -2 -13 8 -21 23 -8 15 -16 29 -19
32 -12 11 -270 402 -270 409 0 4 -22 9 -50 10 l-50 1 0 -303z"/>
</g>
</svg>
